<?xml version="1.0" standalone="no"?>
<!DOCTYPE svg PUBLIC "-//W3C//DTD SVG 20010904//EN"
 "http://www.w3.org/TR/2001/REC-SVG-20010904/DTD/svg10.dtd">
<svg version="1.0" xmlns="http://www.w3.org/2000/svg"
 width="1024.000000pt" height="1024.000000pt" viewBox="0 0 1024.000000 1024.000000"
 preserveAspectRatio="xMidYMid meet">
<metadata>
Created by potrace 1.16, written by Peter Selinger 2001-2019
</metadata>
<g transform="translate(0.000000,1024.000000) scale(0.100000,-0.100000)"
fill="#000000" stroke="none">
<path d="M0 5120 l0 -5120 5120 0 5120 0 0 5120 0 5120 -5120 0 -5120 0 0
-5120z m5480 3668 c333 -124 832 -304 1145 -413 390 -136 495 -167 602 -180
121 -15 155 -33 189 -95 31 -58 64 -136 64 -150 0 -26 77 -152 203 -332 435
-626 634 -873 683 -854 9 3 14 21 14 48 0 32 3 39 10 28 5 -8 10 -11 10 -6 0
5 10 -4 22 -19 20 -26 22 -27 35 -9 7 10 13 26 13 37 0 28 25 14 28 -16 2 -15
8 -27 13 -27 5 0 9 -11 9 -25 0 -28 9 -31 29 -12 11 10 13 9 9 -3 -5 -13 3
-16 38 -18 24 -1 46 3 49 9 4 5 15 7 24 4 10 -3 39 4 65 16 66 29 81 18 21
-16 -87 -49 -95 -55 -95 -73 0 -10 -5 -23 -11 -29 -20 -20 -3 -38 55 -56 87
-28 86 -25 84 -200 0 -133 3 -171 31 -305 17 -85 31 -173 31 -196 0 -38 -18
-124 -36 -170 -5 -12 21 2 69 38 42 32 84 56 93 54 14 -2 35 -58 89 -228 139
-438 253 -690 432 -953 40 -60 73 -117 73 -127 0 -45 -135 -120 -373 -206 -35
-12 -46 -21 -42 -32 3 -9 0 -19 -7 -24 -19 -12 -28 -10 -28 7 0 8 -8 15 -17
14 -11 0 -13 -3 -5 -6 20 -8 14 -33 -8 -33 -12 0 -20 -7 -20 -17 0 -26 -86
-103 -115 -103 -14 0 -30 -9 -37 -20 -7 -11 -18 -20 -25 -20 -7 0 -13 -6 -13
-14 0 -8 -5 -16 -11 -18 -7 -2 0 -17 16 -36 15 -18 28 -38 29 -45 1 -8 10 -26
19 -40 23 -35 11 -34 -33 4 -19 16 -36 25 -38 19 -2 -5 -10 -3 -19 5 -20 20
-33 10 -33 -25 0 -16 -5 -32 -11 -35 -6 -4 -14 -17 -19 -29 -8 -19 -9 -18 -10
9 -1 44 -15 63 -29 39 -10 -18 -10 -18 -11 1 -1 16 -3 17 -8 5 -28 -64 -54
-69 -101 -23 -22 21 -26 22 -34 8 -7 -13 -2 -25 21 -48 84 -90 169 -239 157
-276 -8 -25 -108 -94 -192 -132 -76 -34 -186 -65 -280 -79 -38 -5 -76 -18 -95
-31 -18 -13 -39 -24 -46 -26 -14 -2 -43 -25 -93 -73 -15 -14 -37 -32 -49 -40
-13 -8 -44 -31 -69 -51 -25 -19 -74 -54 -108 -76 -105 -70 -150 -117 -219
-229 -11 -19 -24 -31 -27 -27 -4 3 -7 0 -7 -8 0 -8 -18 -35 -39 -59 -22 -25
-46 -56 -53 -70 -24 -47 -99 -140 -131 -163 -18 -13 -59 -31 -92 -39 -104 -28
-317 -89 -410 -119 -191 -60 -355 -109 -480 -144 -77 -22 -139 -45 -152 -57
-19 -18 -31 -20 -83 -15 -40 3 -64 1 -73 -7 -6 -7 -21 -12 -32 -13 -11 0 -102
-26 -203 -57 -173 -53 -212 -63 -200 -51 7 8 398 142 451 156 27 6 44 15 38
18 -6 4 5 13 24 20 19 7 35 17 35 22 0 5 9 9 20 9 11 0 20 -4 20 -9 0 -5 71
15 158 45 198 69 223 77 230 70 3 -3 -2 -6 -11 -6 -9 0 -18 -4 -22 -9 -3 -6
22 -1 55 10 33 12 60 23 60 26 0 3 -8 2 -17 -1 -15 -5 -14 -3 2 9 11 9 30 13
45 11 14 -3 39 1 55 9 24 11 26 14 10 15 -11 0 14 15 55 31 41 17 80 35 86 39
5 5 60 31 121 58 61 27 125 59 141 70 22 16 32 18 40 10 27 -27 9 11 -48 99
-33 51 -58 93 -55 93 3 0 1 9 -5 20 -19 36 -3 21 35 -32 46 -63 105 -128 117
-128 5 0 7 4 4 9 -3 4 5 6 18 4 26 -5 74 34 118 94 13 18 41 57 63 87 22 31
47 55 55 53 8 -1 14 4 12 11 -1 7 15 36 36 65 50 69 141 216 188 302 20 39 46
82 56 98 19 26 19 27 1 34 -32 11 -177 83 -218 107 -33 20 -64 26 -170 35
-165 14 -344 44 -463 78 -81 22 -97 24 -118 13 -29 -16 -92 -18 -237 -7 l-109
8 23 -33 c13 -18 31 -42 41 -53 29 -35 100 -127 178 -230 42 -55 106 -139 143
-187 37 -48 67 -92 67 -97 0 -4 19 -29 41 -55 32 -37 39 -50 30 -59 -9 -9 -11
-9 -6 3 3 9 -3 19 -16 25 -12 6 -21 15 -21 20 0 6 -6 14 -14 18 -8 5 -25 23
-37 41 -12 19 -76 100 -142 182 -67 82 -158 197 -203 256 -132 173 -119 163
-203 149 -38 -6 -74 -9 -79 -6 -13 8 -110 27 -150 30 -19 1 -38 -3 -42 -9 -5
-7 -8 -7 -8 2 0 7 -4 11 -8 8 -8 -5 -197 -7 -247 -3 -16 2 -41 6 -55 10 -25 8
-317 15 -550 15 -69 0 -143 1 -165 3 -22 1 -125 3 -230 3 -187 1 -191 0 -256
-28 -56 -24 -70 -26 -89 -16 -13 7 -82 14 -169 16 -93 3 -167 11 -204 21 -54
15 -63 15 -130 0 -85 -19 -213 -37 -267 -37 -43 0 -13 36 -376 -453 -171 -231
-208 -279 -247 -330 -39 -49 -128 -200 -124 -211 2 -5 10 -13 18 -17 27 -16
108 -49 117 -49 5 0 19 -9 32 -20 13 -11 30 -20 39 -20 35 0 156 -72 143 -85
-4 -5 -2 -5 4 -2 13 8 89 -17 179 -58 33 -14 67 -28 75 -30 8 -3 65 -22 127
-44 65 -23 115 -36 118 -31 10 16 38 12 31 -5 -3 -9 0 -15 9 -15 8 0 23 -8 34
-19 10 -10 47 -28 82 -40 35 -12 71 -26 79 -32 11 -8 9 -8 -10 -2 -14 4 -39 8
-57 8 -17 0 -29 3 -28 6 2 3 -26 6 -62 7 -46 2 -82 9 -117 26 -28 13 -85 34
-126 47 -41 12 -77 26 -78 31 -2 4 -11 8 -21 8 -9 0 -57 13 -106 30 -97 33
-108 35 -85 19 33 -23 -72 5 -290 77 -298 99 -279 90 -300 139 -10 23 -31 57
-47 76 -16 19 -41 52 -56 75 -15 22 -36 50 -46 61 -10 11 -27 35 -36 54 -35
66 -144 207 -255 329 -43 47 -109 122 -146 166 -67 79 -88 105 -215 267 -34
42 -65 77 -70 77 -5 0 -9 5 -9 11 0 17 -34 56 -45 52 -13 -4 -83 58 -107 94
l-18 28 7 -34 c5 -30 4 -33 -11 -28 -13 5 -19 1 -23 -13 -3 -11 -9 -20 -14
-20 -5 0 -9 -7 -9 -15 0 -8 -4 -15 -9 -15 -8 0 -27 159 -22 187 1 7 -8 17 -21
24 -18 10 -24 9 -39 -10 -10 -12 -29 -21 -43 -21 -26 0 -26 1 -10 25 15 24 15
25 -3 25 -11 0 -28 -7 -39 -15 -10 -8 -23 -15 -28 -15 -14 0 87 79 117 93 19
8 26 18 23 30 -2 9 1 17 6 17 30 0 -45 53 -78 55 -6 0 -18 5 -25 11 -8 7 -24
15 -36 18 -13 4 -23 11 -23 15 0 4 -10 18 -21 30 -16 17 -19 25 -10 31 18 11
-11 20 -63 20 -113 0 -400 83 -526 152 -110 60 -200 129 -200 153 0 6 39 56
86 111 177 206 393 570 519 876 l28 68 -29 62 c-70 155 -34 313 136 597 38 64
94 143 125 176 30 33 55 68 55 78 0 10 27 45 59 78 l59 58 -24 26 c-12 14 -27
25 -31 25 -4 1 -30 21 -58 46 l-50 46 77 -41 78 -41 22 30 c13 19 25 26 32 21
22 -18 51 -16 67 3 9 11 31 21 53 22 27 2 47 13 69 36 40 41 98 73 107 59 3
-6 22 11 40 38 19 28 80 110 135 183 131 173 265 363 265 376 0 16 -68 71 -95
78 -14 3 -22 10 -20 15 3 5 -5 11 -18 14 -23 6 -73 -15 -142 -60 -50 -34 -17
3 43 47 31 23 59 43 61 44 9 7 -26 38 -57 51 -32 13 -132 81 -132 89 0 5 135
-67 193 -104 l39 -23 17 20 c10 12 23 21 29 21 11 0 24 -30 21 -46 -5 -30 32
-77 72 -89 18 -6 29 0 51 26 58 70 169 245 228 359 33 65 71 132 85 148 25 29
76 49 225 85 92 22 549 193 1555 584 220 86 414 159 430 163 41 9 81 -3 425
-132z"/>
<path d="M5006 8875 c-111 -40 -157 -61 -150 -68 4 -4 -4 -7 -18 -7 -34 0
-118 -30 -118 -42 0 -5 -4 -7 -9 -4 -8 6 -48 -8 -118 -40 -17 -8 -34 -14 -37
-14 -10 0 -100 -43 -106 -50 -3 -4 -12 -7 -20 -7 -31 0 -380 -146 -373 -156 4
-6 0 -8 -10 -4 -14 5 -158 -45 -203 -72 -18 -10 -17 -10 4 -11 25 0 28 -9 10
-30 -7 -8 -4 -7 8 3 17 14 21 14 21 2 0 -8 -4 -12 -8 -9 -4 2 -12 -4 -18 -13
-10 -17 -11 -16 -17 5 -6 21 -7 21 -20 5 -7 -10 -14 -14 -14 -9 0 6 -7 1 -16
-10 -11 -13 -14 -14 -11 -3 3 9 -1 16 -9 16 -7 0 -11 -4 -9 -8 7 -11 -6 -40
-15 -34 -4 3 -10 -2 -14 -10 -3 -8 -1 -17 4 -20 6 -4 10 -1 10 4 0 6 5 11 12
11 6 0 3 -9 -7 -20 -17 -19 -19 -19 -38 -3 -19 18 -20 17 -7 -7 10 -21 10 -23
-1 -12 -15 14 -33 16 -25 3 3 -5 -7 -11 -23 -13 -23 -3 -28 -1 -24 11 2 9 -1
7 -9 -4 -7 -11 -20 -21 -28 -23 -8 -2 -17 -7 -20 -11 -3 -5 -13 -7 -23 -5 -9
1 -15 -2 -11 -7 5 -9 -16 -13 -43 -10 -7 1 -13 -3 -13 -10 0 -6 -7 -9 -15 -5
-8 3 -15 0 -15 -7 0 -9 -2 -9 -8 0 -6 10 -13 9 -30 -3 -12 -8 -20 -19 -18 -23
3 -4 -4 -8 -15 -8 -12 -1 -17 3 -13 9 4 7 2 8 -4 4 -26 -16 1 -33 56 -35 95
-4 72 -11 -39 -12 -57 -1 -126 -3 -153 -5 -53 -4 -205 -38 -248 -55 -40 -16
-58 -5 -23 14 17 9 24 16 17 17 -23 0 -83 -64 -86 -93 -2 -16 -9 -34 -16 -40
-10 -10 -12 -8 -6 8 5 16 3 15 -13 -5 -11 -13 -18 -28 -15 -31 2 -4 1 -9 -3
-11 -5 -1 -15 -15 -23 -30 -8 -15 -19 -27 -24 -27 -4 1 -37 -39 -72 -88 -36
-48 -71 -96 -78 -105 -8 -9 -12 -26 -9 -38 5 -17 2 -21 -12 -18 -26 4 -98 -98
-90 -129 3 -15 1 -21 -7 -18 -20 7 -38 -12 -108 -110 -50 -70 -233 -320 -277
-380 -33 -43 -34 -47 -6 -21 17 15 36 25 43 21 6 -4 17 -1 25 5 8 7 15 9 15 5
0 -4 7 -2 15 5 8 7 22 10 30 6 8 -3 15 -1 15 4 0 6 6 10 14 10 8 0 27 5 43 12
32 13 26 11 123 38 41 12 98 26 125 32 28 5 55 13 60 18 6 4 30 10 55 14 81
10 111 16 123 23 7 4 14 8 17 9 3 0 25 6 50 13 25 7 50 14 55 15 33 7 55 19
55 32 0 12 2 12 14 2 8 -7 12 -16 9 -20 -8 -15 5 -8 18 9 12 14 12 16 -1 9 -8
-4 -6 -1 4 8 10 8 23 13 27 10 5 -3 9 1 9 8 0 9 3 9 10 -2 8 -12 10 -12 10 -1
0 11 3 11 15 1 13 -11 14 -10 10 3 -4 8 -2 18 4 22 6 3 11 2 11 -3 0 -15 34
-9 51 10 12 13 19 14 27 6 9 -9 10 -6 7 10 -3 19 0 21 20 16 13 -3 32 -1 42 6
16 10 16 10 -4 5 -14 -4 -23 -2 -23 4 0 6 6 10 13 9 6 -2 11 4 9 12 -3 12 -1
13 9 3 20 -19 33 -15 18 5 -13 16 -13 16 7 0 11 -10 24 -18 28 -18 11 0 36 27
36 39 0 6 7 11 15 11 8 0 15 -5 15 -12 0 -6 3 -8 6 -5 4 4 2 12 -4 20 -8 10
-6 13 9 14 10 1 19 -5 19 -12 0 -9 6 -12 15 -9 8 4 12 10 9 15 -3 5 2 6 11 3
9 -4 25 2 36 12 17 16 22 16 30 4 8 -12 10 -11 8 5 -3 45 0 53 23 47 13 -3 19
-1 15 5 -4 6 0 13 8 17 18 6 20 -5 4 -21 -9 -9 -7 -12 8 -10 12 0 19 6 16 13
-3 7 1 21 7 31 10 16 11 16 7 -4 -5 -20 -3 -22 16 -11 29 14 37 23 14 15 -11
-4 -16 -3 -12 3 3 6 13 10 21 10 8 0 13 3 11 8 -3 4 1 12 8 19 11 10 15 10 19
0 7 -17 38 23 31 41 -2 7 0 10 5 7 6 -3 10 -1 10 5 0 6 4 8 10 5 6 -4 7 1 3
11 -4 11 -2 15 4 11 6 -4 14 0 17 9 5 13 9 14 21 4 8 -7 12 -16 9 -21 -3 -5
-1 -9 5 -9 5 0 9 12 8 27 -2 20 3 28 18 30 l20 3 -20 -9 c-17 -8 -15 -9 11 -8
19 1 30 7 27 14 -2 6 12 19 33 29 l37 18 -23 18 c-12 10 -18 18 -13 18 5 0 15
-6 22 -12 11 -11 13 -10 8 5 -9 25 2 21 14 -5 9 -22 9 -21 6 4 -2 15 -1 25 4
23 4 -3 10 -1 14 5 4 6 11 8 16 4 5 -3 7 -10 4 -15 -10 -15 17 -10 36 7 16 15
17 14 13 -8 l-5 -23 13 23 c8 12 17 20 21 16 3 -4 10 1 13 10 5 12 9 14 14 6
5 -7 11 -6 21 6 12 16 12 17 -1 9 -10 -5 -8 -1 4 13 16 19 36 22 36 6 0 -3 -4
-2 -10 1 -5 3 -10 2 -10 -4 0 -5 9 -9 19 -8 15 1 17 5 10 18 -13 25 -11 32 6
25 13 -5 35 3 65 22 2 2 -2 7 -9 12 -10 5 -6 8 12 7 14 -1 23 -5 21 -9 -2 -3
4 -5 13 -3 10 2 27 4 38 4 16 1 17 3 6 10 -8 5 -20 7 -28 4 -7 -3 -13 -1 -13
5 0 5 15 8 35 5 20 -3 44 -2 53 2 16 6 16 7 -1 20 -10 7 -14 16 -8 19 5 4 12
2 16 -3 3 -6 24 -8 46 -5 27 3 39 1 34 -5 -4 -7 1 -8 11 -4 11 4 13 8 6 11 -8
2 -6 11 6 30 15 23 15 25 1 20 -9 -4 -16 -1 -16 7 0 10 5 11 17 5 10 -5 21 -6
25 -2 5 4 5 -1 2 -10 -3 -10 -1 -20 5 -24 6 -4 8 -3 5 2 -3 6 -2 16 3 24 5 9
4 20 -3 29 -8 10 -4 9 14 -3 24 -15 28 -15 42 -2 8 8 17 12 21 9 3 -4 6 0 6 8
0 12 2 12 10 -1 6 -10 4 -21 -8 -34 -17 -19 -17 -19 10 0 15 10 29 29 33 42 3
12 11 22 19 22 25 0 58 38 51 59 -6 20 7 27 38 22 4 -1 10 6 13 14 4 8 10 15
16 15 5 0 6 -4 3 -10 -4 -6 1 -7 11 -3 15 6 15 7 1 18 -9 7 -14 15 -10 18 11
12 43 8 43 -5 0 -6 3 -8 7 -4 5 4 0 14 -11 21 -18 13 -17 14 8 21 14 3 26 13
26 21 0 8 5 11 10 8 6 -3 10 1 10 10 0 10 5 13 12 9 8 -5 9 -1 5 12 -6 17 -6
17 6 2 12 -15 14 -15 26 4 9 15 15 17 26 8 10 -9 15 -7 19 8 8 24 40 34 57 18
9 -8 10 -8 5 2 -4 7 -1 12 8 12 9 0 16 8 17 18 0 9 2 24 3 32 2 8 6 60 10 114
3 55 9 102 11 105 3 2 5 -36 5 -86 0 -149 11 -273 25 -273 7 0 24 -24 39 -52
14 -29 26 -47 26 -41 0 20 50 -7 50 -26 0 -11 3 -12 8 -4 5 8 12 8 26 -3 11
-8 14 -14 8 -14 -7 0 -12 -5 -12 -12 0 -6 3 -8 6 -5 10 9 46 -12 39 -23 -3 -6
0 -7 8 -4 10 4 19 -8 29 -38 7 -24 19 -42 26 -41 7 2 12 -2 12 -8 0 -5 6 -7
13 -3 8 5 8 2 -2 -9 -12 -15 -11 -17 4 -17 12 0 16 -6 12 -20 -3 -12 -1 -18 5
-14 6 4 15 0 20 -7 8 -11 9 -10 4 4 -7 21 1 22 20 2 17 -17 9 -39 -9 -29 -7 4
-9 3 -5 -1 11 -12 60 -16 53 -4 -4 5 2 6 11 2 11 -4 13 -8 6 -11 -7 -2 -12 -8
-12 -13 0 -6 5 -7 10 -4 6 3 10 -1 10 -9 0 -9 8 -16 19 -16 11 0 23 -5 26 -10
5 -8 11 -7 21 1 19 15 18 2 -1 -17 -8 -9 -15 -21 -15 -27 0 -7 4 -6 10 3 8 13
10 12 10 -4 0 -19 1 -19 21 -1 20 19 20 19 10 -7 -9 -23 -8 -26 6 -21 12 5 14
1 8 -18 -7 -22 -7 -23 11 -5 11 12 19 15 22 7 2 -6 8 -11 13 -11 6 0 7 5 3 12
-4 7 -3 8 4 4 9 -5 9 -13 1 -29 -7 -12 -8 -19 -4 -14 5 4 22 -5 39 -20 17 -16
24 -20 16 -8 -14 20 -14 20 7 2 16 -14 22 -15 26 -5 4 11 6 11 6 0 1 -7 6 -10
13 -6 7 4 8 3 4 -5 -4 -6 -12 -9 -17 -6 -5 4 -9 1 -9 -4 0 -6 7 -11 15 -11 8
0 15 -4 15 -10 0 -5 9 -10 19 -10 30 0 52 -11 44 -23 -4 -6 0 -8 8 -5 14 5 34
-9 36 -25 5 -28 10 -32 28 -17 17 14 18 14 6 -7 -9 -19 -9 -22 3 -17 15 6 48
-24 44 -39 -3 -9 82 -51 96 -48 5 1 3 -6 -4 -16 -8 -10 -11 -15 -6 -11 4 4 23
-9 42 -28 19 -19 41 -34 50 -34 8 0 17 -7 20 -15 4 -8 10 -13 14 -10 4 3 10
-2 14 -10 3 -9 18 -15 36 -15 16 0 30 -5 30 -11 0 -8 6 -7 17 2 9 8 14 9 10 3
-9 -15 57 -74 82 -74 24 0 36 -16 19 -23 -8 -3 -6 -6 5 -6 9 -1 17 -6 17 -12
0 -5 5 -7 10 -4 6 4 7 11 4 17 -5 7 -2 8 5 4 9 -6 8 -13 -5 -27 -16 -17 -16
-19 -1 -20 35 -3 39 -4 51 -21 7 -10 16 -15 19 -12 3 3 13 -6 22 -20 17 -25
44 -38 29 -14 -4 7 -3 8 5 4 6 -4 9 -12 6 -17 -4 -5 1 -9 10 -9 9 0 34 -18 55
-40 21 -22 43 -40 49 -40 6 0 19 -8 29 -17 38 -37 72 -63 82 -63 6 0 10 -4 10
-8 0 -4 14 -16 30 -25 28 -17 45 -47 18 -31 -10 5 -10 3 0 -7 11 -12 14 -12
21 0 5 8 11 9 15 3 3 -5 25 -10 48 -10 24 0 77 -3 118 -6 41 -3 104 -8 138
-11 35 -3 68 -7 73 -11 5 -3 9 0 9 7 0 8 4 8 15 -1 8 -7 15 -9 15 -5 0 4 7 2
16 -5 11 -10 63 -14 182 -15 92 -2 199 -6 237 -11 39 -4 74 -7 79 -5 5 1 41
-6 80 -15 108 -25 199 -33 213 -18 7 6 9 14 6 18 -4 3 -1 6 5 6 6 0 9 7 6 15
-4 10 0 15 15 15 16 0 20 6 18 23 -2 18 2 21 22 19 23 -4 22 -2 -14 50 -22 29
-60 80 -86 113 -25 33 -128 173 -228 310 -303 419 -413 565 -422 560 -4 -3
-11 0 -15 6 -4 8 -3 9 4 5 21 -13 13 10 -10 30 -19 16 -21 16 -9 1 13 -16 12
-17 -12 -8 -14 6 -43 9 -64 7 l-38 -4 -5 -93 -5 -94 -8 94 c-7 77 -13 101 -33
127 -26 34 -64 126 -64 156 0 13 -13 18 -54 23 -30 4 -58 5 -63 2 -4 -3 -17 1
-28 9 -18 13 -18 14 8 14 32 0 31 -1 12 36 -12 24 -30 35 -107 63 -51 18 -169
61 -263 96 -93 34 -217 79 -275 100 -58 20 -143 52 -190 71 -47 18 -150 58
-230 87 -80 30 -307 116 -505 191 -198 75 -377 138 -399 139 -22 2 -65 -6
-100 -18z"/>
<path d="M3100 7035 c-407 -33 -706 -94 -950 -192 -104 -42 -249 -119 -294
-157 -35 -29 -33 -33 50 -96 l54 -42 62 40 c219 142 531 241 858 272 161 15
360 26 360 20 0 -3 -12 -27 -26 -54 -48 -90 -127 -355 -165 -551 -22 -115 -23
-126 -8 -105 9 12 10 12 5 -3 -3 -10 -6 -24 -6 -30 0 -6 -12 14 -27 44 -106
217 -252 292 -477 244 -97 -21 -206 -77 -260 -135 -99 -106 -66 -162 146 -250
133 -55 268 -117 268 -123 0 -3 -10 -3 -22 0 -19 4 -20 3 -8 -6 29 -22 53 -34
46 -23 -9 15 31 6 61 -13 44 -29 104 -96 120 -133 18 -41 20 -175 5 -227 -6
-21 -8 -1 -4 62 8 149 -20 216 -114 276 -63 39 -64 34 -4 -20 73 -66 100 -126
100 -225 0 -311 -365 -658 -865 -822 -199 -65 -393 -95 -607 -96 -134 0 -272
14 -298 30 -10 6 -3 20 28 56 53 59 134 182 219 330 56 98 84 159 127 279 6
16 12 8 26 -39 35 -110 107 -190 208 -229 61 -24 198 -22 298 4 103 27 187 72
249 134 61 60 85 108 85 168 0 101 -72 151 -345 238 -288 93 -362 131 -411
215 -35 60 -41 133 -16 212 11 34 18 62 16 62 -3 0 -14 -21 -25 -47 -22 -50
-30 -145 -16 -198 l7 -30 -14 30 c-21 43 -19 126 4 192 35 99 164 250 318 370
45 36 82 68 82 71 0 4 -35 25 -79 47 l-78 40 -48 -40 c-167 -138 -264 -260
-355 -444 -69 -139 -95 -222 -94 -306 0 -73 31 -165 55 -165 21 0 3 -63 -56
-197 -67 -152 -177 -363 -253 -487 -60 -96 -209 -301 -268 -366 -20 -22 -35
-42 -33 -44 122 -98 201 -141 352 -191 208 -68 422 -83 659 -44 71 12 131 19
134 16 2 -2 0 -16 -5 -29 -43 -114 -10 -372 70 -533 59 -121 214 -234 384
-281 81 -22 277 -30 373 -14 106 17 236 56 305 91 44 22 86 33 175 45 272 35
428 60 471 75 27 9 35 8 51 -6 21 -19 26 -19 280 20 166 26 471 52 745 65 190
8 205 13 270 79 21 23 42 41 46 41 4 0 12 -13 19 -29 6 -16 25 -41 41 -57 l30
-28 219 -4 c171 -4 220 -2 220 8 0 9 4 9 13 2 16 -13 507 -37 571 -28 44 7 49
11 63 46 l16 39 34 -35 c73 -76 195 -113 394 -121 126 -5 150 -3 182 12 34 16
39 16 60 2 13 -8 42 -20 64 -26 74 -20 427 -80 537 -91 79 -8 117 -16 137 -31
49 -35 172 -88 250 -108 257 -65 481 -46 697 61 57 28 105 55 108 59 3 5 -25
57 -61 116 -50 83 -80 121 -131 163 -81 68 -269 268 -260 277 4 4 27 2 51 -5
67 -18 76 -16 126 31 52 48 76 87 81 137 4 30 8 35 29 32 42 -4 -60 33 -188
69 -119 33 -123 35 -123 62 0 15 3 27 6 27 4 0 81 -20 171 -45 139 -38 311
-79 363 -85 72 -9 296 -9 345 0 122 23 370 118 390 150 4 6 -16 46 -47 93
-176 264 -306 549 -431 945 -29 95 -57 175 -60 178 -3 3 -35 -18 -70 -48 -36
-29 -80 -62 -98 -73 -23 -14 -36 -30 -39 -50 -5 -27 -8 -22 -24 36 -18 67 -18
67 5 110 51 100 60 195 33 339 -29 157 -42 300 -37 396 3 52 3 94 0 94 -7 0
-96 24 -145 39 -29 9 -32 8 -28 -7 16 -59 18 -84 5 -76 -9 5 -7 -2 4 -20 25
-37 14 -45 -15 -10 -13 15 -37 43 -55 63 l-32 35 -24 -22 c-13 -12 -27 -22
-32 -22 -4 0 -27 -18 -51 -40 -24 -22 -48 -40 -54 -40 -5 0 2 26 16 58 14 31
28 63 31 70 4 9 -10 12 -49 12 -29 0 -107 7 -173 15 -66 8 -203 24 -305 35
-102 11 -201 23 -220 25 -82 11 -223 26 -325 35 -60 6 -141 15 -180 20 -178
26 -379 6 -512 -51 -112 -48 -259 -172 -315 -264 l-30 -50 7 48 c3 27 17 85
31 130 13 45 27 105 30 133 6 48 5 51 -17 58 -40 10 -445 27 -589 24 -101 -2
-134 -6 -132 -15 3 -19 -28 -16 -51 5 -17 15 -48 17 -339 17 -312 0 -321 -1
-328 -20 -27 -75 -65 -247 -75 -345 -4 -30 -14 -72 -23 -94 -13 -32 -17 -35
-23 -20 -14 35 -9 89 12 134 11 25 24 65 29 90 5 25 20 92 34 148 l24 104
-126 -7 c-161 -8 -561 -34 -627 -40 -293 -28 -641 -70 -668 -81 -10 -3 -17 -4
-17 0 0 3 24 72 54 153 29 81 59 172 66 201 12 47 12 54 -3 69 -22 23 -189 26
-407 8z m2326 -472 c3 -15 -3 -24 -16 -28 -11 -4 -26 -17 -33 -30 -6 -13 -30
-43 -52 -67 -34 -36 -107 -156 -105 -173 2 -26 -2 -35 -12 -29 -7 4 -8 3 -4
-4 8 -13 -70 -173 -90 -185 -8 -4 -14 -15 -14 -22 0 -8 -4 -15 -8 -15 -5 0
-35 -55 -67 -122 -32 -68 -97 -204 -145 -303 -47 -99 -92 -194 -99 -211 l-13
-32 -121 -6 c-67 -4 -133 -9 -147 -12 -25 -4 -25 -3 -43 103 -17 105 -95 392
-136 503 -30 80 -17 14 30 -150 22 -74 39 -142 39 -150 -1 -16 -4 -7 -125 385
-82 266 -134 391 -182 440 -31 32 -47 62 -35 69 21 12 590 48 597 37 2 -5 -15
-22 -38 -39 -46 -33 -49 -42 -48 -137 0 -43 17 -116 61 -259 33 -110 58 -201
56 -203 -2 -2 -20 40 -40 94 -20 54 -34 84 -30 66 5 -32 102 -344 108 -351 2
-1 35 55 74 125 91 166 114 214 109 220 -3 2 -11 -8 -19 -24 -44 -83 -118
-205 -118 -192 0 3 50 105 110 226 138 277 150 329 98 425 -38 67 -36 67 214
70 123 2 227 3 232 3 5 -1 11 -11 12 -22z m690 -6 c5 -4 -6 -21 -24 -38 -39
-36 -46 -63 -39 -137 9 -85 130 -440 228 -665 21 -50 37 -92 35 -94 -7 -7 -97
206 -184 437 -12 30 -21 48 -21 38 -1 -18 78 -239 134 -374 47 -114 146 -291
208 -373 l48 -64 -63 6 c-35 3 -154 12 -265 18 -176 11 -200 14 -183 26 35 25
42 81 20 166 -10 42 -25 95 -33 118 -17 50 10 45 -297 48 l-215 3 -34 -83
c-43 -107 -51 -185 -22 -218 12 -13 20 -25 19 -25 -2 -1 -94 0 -205 2 l-202 3
37 38 c52 54 180 272 290 490 97 195 122 261 48 128 -76 -137 -69 -107 18 78
46 99 89 198 95 220 23 85 10 156 -38 199 -12 11 -21 30 -21 44 l0 24 329 -3
c181 -2 333 -8 337 -12z m1074 -25 l85 -19 7 -54 c4 -30 15 -92 23 -139 9 -47
19 -96 21 -110 4 -22 3 -22 -10 5 -19 40 -20 18 -1 -36 21 -58 26 -101 11 -96
-6 3 -10 9 -9 14 1 6 -12 23 -30 39 l-32 29 25 -30 c14 -16 -1 -6 -33 22 -115
100 -247 143 -354 114 -63 -17 -137 -89 -163 -159 -19 -50 -21 -71 -17 -167 3
-76 11 -129 26 -170 13 -37 15 -53 7 -42 -18 23 -48 143 -56 227 l-7 65 -1
-70 c-5 -255 180 -494 434 -559 34 -9 76 -16 94 -16 l32 0 -6 53 c-23 196 -40
293 -53 303 -8 7 -42 17 -77 24 -69 13 -106 3 -137 -37 -11 -15 -9 -14 10 2
18 15 37 20 85 20 101 0 111 -6 125 -72 6 -31 11 -68 10 -82 -1 -24 -6 -5 -24
96 -5 28 -12 34 -48 44 -54 14 -109 7 -144 -21 -18 -14 -29 -17 -31 -10 -3 9
-7 8 -13 -1 -5 -9 -8 9 -7 46 1 45 2 50 5 21 3 -26 7 -35 13 -27 15 25 -40
205 -57 187 -3 -3 -12 6 -20 20 -17 34 -17 50 1 35 18 -15 96 -38 181 -51 39
-7 141 -25 228 -41 154 -28 253 -39 182 -19 -16 5 -63 14 -103 20 -40 7 -71
14 -69 17 5 5 219 -27 227 -34 2 -2 -2 -8 -10 -14 -13 -8 -13 -10 0 -19 13 -9
7 -14 -12 -11 -4 0 -13 -17 -19 -38 -9 -32 -9 -63 5 -158 20 -142 85 -488 97
-521 l9 -24 -62 7 c-108 12 -325 44 -406 61 -321 65 -579 246 -698 490 -54
111 -75 204 -77 349 l-2 110 -9 -65 c-12 -82 4 -233 33 -314 11 -33 19 -61 17
-63 -7 -7 -43 98 -56 160 -17 83 -15 250 5 322 27 101 68 176 129 237 86 86
179 135 321 172 45 11 322 -4 405 -22z m-3170 -18 c0 -3 -12 -26 -27 -52 -46
-78 -35 -171 68 -540 32 -113 16 -96 -22 23 -18 59 -35 102 -37 97 -4 -12 47
-207 99 -382 41 -136 91 -257 128 -309 l20 -28 -102 -7 c-117 -8 -336 -33
-374 -42 l-25 -7 28 43 c25 37 29 54 29 109 0 36 -6 95 -14 130 l-14 63 -71
-7 c-111 -10 -418 -64 -432 -76 -7 -5 -34 -53 -60 -105 -41 -81 -48 -104 -49
-153 l0 -59 -92 -12 c-92 -11 -204 -36 -295 -64 l-47 -15 71 87 c89 108 346
498 481 730 61 105 32 69 -59 -70 -47 -73 -103 -158 -123 -188 -21 -30 -52
-81 -70 -112 -18 -32 -37 -61 -44 -65 -12 -7 -2 10 133 227 235 376 289 481
290 562 0 38 -6 54 -30 81 -16 19 -26 37 -22 41 4 4 1 6 -7 4 -7 -1 -15 2 -17
8 -3 6 31 15 88 22 51 6 170 22 263 36 228 33 335 43 335 30z m3600 -29 c91
-9 264 -29 385 -45 121 -16 258 -31 305 -35 47 -4 121 -12 165 -18 l80 -12 12
-85 c32 -229 39 -290 33 -290 -3 0 -12 35 -19 78 -20 117 -32 160 -25 92 5
-51 22 -143 40 -215 l7 -30 -23 20 c-14 12 -20 14 -15 5 5 -8 -2 -6 -16 6 -67
58 -279 124 -543 169 -35 6 -38 5 -32 -12 4 -10 14 -47 22 -83 31 -136 32
-138 62 -143 20 -3 17 -4 -12 -6 -72 -2 -25 -18 150 -50 235 -43 255 -41 279
16 11 25 13 26 20 9 5 -11 3 -21 -5 -26 -11 -7 -9 -34 10 -147 12 -76 27 -146
32 -156 14 -28 6 -29 -44 -7 -90 39 -438 128 -438 111 0 -3 19 -88 42 -188
l42 -182 46 -11 c90 -23 281 -60 343 -66 75 -8 170 14 224 50 19 14 50 45 68
70 l32 46 78 -183 c42 -100 110 -246 151 -324 41 -79 74 -145 74 -147 0 -4
-192 36 -330 70 -58 15 -271 73 -475 131 -309 87 -516 141 -643 169 l-23 5 29
37 c72 92 70 157 -18 579 -35 165 -52 213 -30 83 16 -97 7 -99 -13 -3 -9 43
-35 166 -57 273 -62 301 -67 313 -152 408 -41 45 -43 61 -6 56 13 -2 97 -11
188 -19z m-1888 -1284 c-2 -64 1 -99 12 -126 l16 -38 -87 6 c-49 4 -103 7
-121 7 -36 0 -41 21 -7 26 11 2 21 8 23 14 3 9 53 40 65 40 2 0 4 -7 4 -15 0
-8 -5 -15 -11 -14 -6 1 -20 1 -30 0 -36 -2 -11 -10 54 -17 36 -4 67 -10 70
-15 3 -4 4 24 2 64 -2 40 -8 76 -12 81 -5 5 -7 0 -4 -11 5 -17 1 -20 -20 -20
-14 0 -26 4 -26 9 0 5 4 7 9 4 5 -3 11 5 13 19 3 14 1 25 -4 25 -5 0 -7 4 -4
9 3 5 15 7 26 4 11 -3 20 0 20 6 0 6 -11 11 -25 11 -23 0 -29 -8 -26 -37 1 -6
-3 -14 -9 -18 -5 -3 -8 0 -5 7 3 7 -4 19 -15 26 -17 10 -20 10 -20 -5 0 -15
-2 -14 -15 3 -13 18 -14 17 -15 -16 0 -20 5 -41 11 -47 8 -8 7 -13 -2 -18 -7
-5 -10 -4 -5 3 3 6 2 13 -4 17 -6 4 -10 -5 -10 -20 0 -26 -28 -90 -36 -82 -2
2 3 20 11 41 8 20 18 63 22 96 l6 59 76 4 c42 1 76 4 76 5 0 1 -1 -38 -3 -87z
m-2208 -63 c-4 -41 0 -79 9 -109 l14 -46 -102 -14 -102 -14 28 56 c16 31 35
83 42 115 12 53 17 60 43 65 73 16 74 16 68 -53z m-425 -168 c35 -5 65 -10 67
-13 2 -2 -1 -30 -7 -63 -6 -32 -12 -67 -12 -76 -1 -9 -4 -15 -8 -12 -9 5 -15
-14 -24 -76 -11 -68 -22 -82 -35 -44 -6 17 -22 37 -35 44 -13 7 -22 16 -20 21
10 16 -69 31 -137 27 -49 -4 -85 -14 -131 -36 -66 -33 -131 -87 -122 -102 3
-5 0 -12 -6 -16 -8 -4 -9 -3 -5 4 4 7 3 12 -3 12 -5 0 -32 -33 -59 -74 -108
-162 -129 -341 -50 -441 31 -40 112 -75 174 -75 113 0 211 45 317 148 45 45
77 69 77 60 0 -9 -4 -18 -10 -20 -9 -3 -39 -219 -36 -272 1 -18 -5 -31 -14
-33 -13 -4 -13 -3 0 6 26 19 -7 13 -105 -18 -205 -66 -407 -88 -526 -56 -70
18 -121 46 -178 99 -42 39 -43 39 -22 9 12 -18 42 -46 65 -62 138 -95 328 -98
635 -10 57 17 105 28 107 26 2 -2 -35 -16 -83 -30 -287 -87 -477 -95 -618 -25
-77 38 -106 66 -146 142 -30 54 -34 72 -37 156 -5 123 14 207 75 329 97 193
290 354 513 426 143 47 279 63 399 45z m2250 -85 c3 -4 -4 -14 -16 -23 -42
-32 -44 -61 -13 -153 29 -88 172 -444 196 -491 8 -15 30 -40 49 -55 19 -15 35
-32 35 -37 0 -4 -79 -7 -175 -5 -96 2 -175 5 -175 7 0 2 9 20 21 40 l21 37
-22 58 -21 57 -164 0 -163 0 -28 -47 c-25 -44 -33 -90 -23 -133 3 -12 -17 -16
-121 -21 -289 -14 -629 -47 -830 -79 -69 -11 -141 -20 -160 -20 -38 0 -85 20
-85 35 0 10 -184 245 -192 245 -10 0 96 -139 156 -204 20 -21 31 -37 25 -35
-26 9 -204 234 -204 258 0 6 -4 11 -9 11 -12 0 -21 -49 -28 -158 -6 -86 -4
-95 17 -124 16 -21 19 -32 11 -38 -13 -8 -333 -60 -368 -60 -32 0 -29 15 8 42
50 37 79 96 89 184 5 44 16 142 25 219 9 77 20 169 25 205 14 96 13 99 -26
136 -43 39 -62 32 171 66 102 14 208 23 290 23 116 0 135 -2 172 -23 47 -24
87 -78 98 -129 10 -52 -36 -144 -104 -204 -30 -27 -58 -49 -62 -49 -4 0 -23
-7 -43 -15 l-36 -15 104 -119 c143 -161 167 -175 206 -121 18 25 25 66 46 247
13 120 25 250 26 289 3 65 0 75 -21 98 -13 14 -32 28 -43 32 -35 11 -18 21 46
28 101 10 486 36 544 36 51 0 52 -1 52 -29 0 -15 -4 -41 -9 -57 -5 -16 -12
-50 -16 -76 -3 -27 -10 -48 -15 -48 -5 0 -24 14 -42 30 -30 27 -38 30 -104 30
-39 0 -91 -3 -116 -6 l-45 -6 -9 -80 -10 -81 115 7 c63 4 123 12 133 17 11 6
21 9 23 7 7 -7 -18 -188 -26 -188 -4 0 -12 8 -18 18 -8 15 -25 17 -118 16
l-108 0 -7 -45 c-3 -24 -7 -68 -7 -96 l-1 -53 75 0 c133 0 221 18 271 56 24
19 46 34 47 34 2 0 -2 -35 -9 -77 -7 -43 -11 -79 -9 -81 7 -8 46 21 69 51 39
51 256 523 256 557 0 29 -29 70 -50 70 -5 0 -10 6 -10 14 0 10 19 16 73 20 39
4 90 8 112 10 55 5 246 -2 254 -9z m811 -9 c16 -2 25 -9 24 -19 0 -10 -1 -63
-2 -119 -2 -71 -5 -98 -12 -88 -5 8 -10 11 -10 5 0 -5 -8 6 -18 25 -19 40 -52
54 -145 63 l-58 6 6 -47 c3 -26 12 -152 20 -279 8 -128 19 -241 24 -250 5 -10
24 -31 43 -48 30 -27 31 -30 13 -34 -34 -6 -365 21 -371 31 -4 5 8 25 26 43
32 33 33 36 32 122 0 166 -14 463 -22 468 -4 2 -44 -1 -89 -9 -69 -11 -87 -18
-114 -45 -19 -17 -35 -29 -38 -27 -2 2 -3 52 -1 110 l3 105 332 -5 c183 -3
343 -7 357 -8z m610 -36 c70 -21 167 -75 213 -118 16 -15 49 -57 73 -94 61
-91 89 -201 81 -315 -7 -102 -31 -158 -92 -217 -67 -66 -135 -89 -265 -89
-125 -1 -207 18 -300 69 -180 99 -261 228 -263 419 -2 117 18 177 83 248 107
117 279 152 470 97z m755 -19 c267 -23 417 -89 481 -213 27 -52 36 -136 18
-172 -21 -40 -75 -97 -86 -90 -4 3 -11 -2 -14 -10 -3 -8 -29 -20 -61 -26 l-55
-12 59 -62 c32 -34 105 -114 161 -178 111 -126 182 -191 277 -253 l60 -39 -30
-7 c-103 -23 -277 4 -376 58 -63 34 -286 270 -403 426 -16 21 -31 35 -33 33
-7 -7 26 -216 39 -248 5 -15 30 -44 54 -63 24 -20 44 -40 44 -44 0 -13 -134 0
-260 26 -69 14 -137 28 -153 31 -39 6 -43 20 -12 44 40 31 45 57 35 155 -6 49
-15 131 -21 183 -11 103 -54 334 -69 374 -5 13 -29 37 -54 51 -26 15 -46 31
-46 36 0 12 302 11 445 0z"/>
<path d="M5720 6184 c0 -21 -76 -178 -130 -269 -16 -27 -29 -53 -30 -56 0 -4
74 -7 165 -8 l165 -2 -21 53 c-12 29 -29 77 -40 105 -10 29 -23 61 -29 70 -13
20 -15 29 26 -92 13 -38 23 -74 21 -80 -3 -5 -9 6 -15 25 -18 62 -94 255 -103
265 -5 5 -9 1 -9 -11z"/>
<path d="M3593 6048 c-9 -18 -28 -55 -43 -83 -61 -118 -110 -194 -110 -171 0
2 16 32 36 66 20 33 35 63 32 65 -2 2 -27 -35 -55 -82 -29 -48 -51 -89 -49
-90 3 -3 327 38 333 41 1 1 -8 31 -21 67 -13 36 -31 96 -41 134 -11 38 -20 64
-22 58 -2 -6 5 -46 16 -89 11 -43 18 -80 16 -82 -3 -3 -21 53 -47 151 -6 26
-16 47 -20 47 -4 0 -15 -15 -25 -32z"/>
<path d="M3504 4683 c-18 -3 -22 -16 -33 -96 -7 -51 -15 -106 -18 -123 l-5
-32 64 17 c104 28 159 67 178 127 12 35 5 78 -11 69 -5 -3 -6 0 -3 8 10 28
-93 46 -172 30z"/>
<path d="M5061 4604 c-19 -42 -45 -92 -58 -111 -13 -18 -23 -35 -23 -36 0 -2
50 -4 110 -5 l110 -2 -16 38 c-9 20 -25 60 -37 87 -11 28 -24 54 -29 60 -4 5
-8 17 -8 27 0 35 -15 17 -49 -58z"/>
<path d="M6553 4708 c-40 -24 -80 -104 -88 -178 -7 -61 14 -179 41 -233 43
-84 125 -138 210 -138 112 0 168 70 165 210 -3 151 -52 271 -136 328 -40 28
-55 33 -104 32 -37 0 -67 -7 -88 -21z"/>
<path d="M7454 4666 c3 -12 12 -66 21 -121 25 -160 15 -145 96 -145 107 0 159
36 159 111 0 72 -83 145 -170 151 -19 1 -39 5 -45 8 -5 4 -23 10 -38 12 -25 5
-28 3 -23 -16z"/>
<path d="M3221 3588 c-126 -17 -154 -24 -225 -58 -113 -55 -271 -91 -424 -97
-67 -3 -125 -10 -128 -14 -3 -5 4 -9 15 -9 16 0 21 -6 21 -27 0 -22 -2 -25
-10 -13 -5 8 -10 12 -10 8 0 -4 53 -101 118 -215 66 -114 132 -232 147 -261
16 -29 31 -48 35 -42 4 6 21 -16 39 -49 18 -34 35 -60 39 -58 4 1 18 -6 32
-16 13 -9 20 -17 15 -17 -22 -1 22 -20 45 -20 28 0 101 75 156 160 16 25 41
59 56 75 29 33 50 60 117 157 24 35 83 115 131 178 47 63 106 144 130 180 24
36 46 67 50 70 3 3 17 21 30 40 23 34 23 35 1 15 l-22 -19 10 27 c10 25 9 26
-15 17 -14 -6 -23 -7 -21 -2 10 14 -191 8 -332 -10z"/>
</g>
</svg>
