<?xml version="1.0" encoding="UTF-8"?>
<svg xmlns="http://www.w3.org/2000/svg" xmlns:xlink="http://www.w3.org/1999/xlink" width="1600px" height="1600px" viewBox="0 0 1600 1600" version="1.1">
<g id="surface1">
<path style=" stroke:none;fill-rule:nonzero;fill:rgb(0%,0%,0%);fill-opacity:1;" d="M 0 800 L 0 1600 L 1600 1600 L 1600 0 L 0 0 Z M 856.25 226.875 C 908.28125 246.25 986.25 274.375 1035.15625 291.40625 C 1096.09375 312.65625 1112.5 317.5 1129.21875 319.53125 C 1148.125 321.875 1153.4375 324.6875 1158.75 334.375 C 1163.59375 343.4375 1168.75 355.625 1168.75 357.8125 C 1168.75 361.875 1180.78125 381.5625 1200.46875 409.6875 C 1268.4375 507.5 1299.53125 546.09375 1307.1875 543.125 C 1308.59375 542.65625 1309.375 539.84375 1309.375 535.625 C 1309.375 530.625 1309.84375 529.53125 1310.9375 531.25 C 1311.71875 532.5 1312.5 532.96875 1312.5 532.1875 C 1312.5 531.40625 1314.0625 532.8125 1315.9375 535.15625 C 1319.0625 539.21875 1319.375 539.375 1321.40625 536.5625 C 1322.5 535 1323.4375 532.5 1323.4375 530.78125 C 1323.4375 526.40625 1327.34375 528.59375 1327.8125 533.28125 C 1328.125 535.625 1329.0625 537.5 1329.84375 537.5 C 1330.625 537.5 1331.25 539.21875 1331.25 541.40625 C 1331.25 545.78125 1332.65625 546.25 1335.78125 543.28125 C 1337.5 541.71875 1337.8125 541.875 1337.1875 543.75 C 1336.40625 545.78125 1337.65625 546.25 1343.125 546.5625 C 1346.875 546.71875 1350.3125 546.09375 1350.78125 545.15625 C 1351.40625 544.375 1353.125 544.0625 1354.53125 544.53125 C 1356.09375 545 1360.625 543.90625 1364.6875 542.03125 C 1375 537.5 1377.34375 539.21875 1367.96875 544.53125 C 1354.375 552.1875 1353.125 553.125 1353.125 555.9375 C 1353.125 557.5 1352.34375 559.53125 1351.40625 560.46875 C 1348.28125 563.59375 1350.9375 566.40625 1360 569.21875 C 1373.59375 573.59375 1373.4375 573.125 1373.125 600.46875 C 1373.125 621.25 1373.59375 627.1875 1377.96875 648.125 C 1380.625 661.40625 1382.8125 675.15625 1382.8125 678.75 C 1382.8125 684.6875 1380 698.125 1377.1875 705.3125 C 1376.40625 707.1875 1380.46875 705 1387.96875 699.375 C 1394.53125 694.375 1401.09375 690.625 1402.5 690.9375 C 1404.6875 691.25 1407.96875 700 1416.40625 726.5625 C 1438.125 795 1455.9375 834.375 1483.90625 875.46875 C 1490.15625 884.84375 1495.3125 893.75 1495.3125 895.3125 C 1495.3125 902.34375 1474.21875 914.0625 1437.03125 927.5 C 1431.5625 929.375 1429.84375 930.78125 1430.46875 932.5 C 1430.9375 933.90625 1430.46875 935.46875 1429.375 936.25 C 1426.40625 938.125 1425 937.8125 1425 935.15625 C 1425 933.90625 1423.75 932.8125 1422.34375 932.96875 C 1420.625 932.96875 1420.3125 933.4375 1421.5625 933.90625 C 1424.6875 935.15625 1423.75 939.0625 1420.3125 939.0625 C 1418.4375 939.0625 1417.1875 940.15625 1417.1875 941.71875 C 1417.1875 945.78125 1403.75 957.8125 1399.21875 957.8125 C 1397.03125 957.8125 1394.53125 959.21875 1393.4375 960.9375 C 1392.34375 962.65625 1390.625 964.0625 1389.53125 964.0625 C 1388.4375 964.0625 1387.5 965 1387.5 966.25 C 1387.5 967.5 1386.71875 968.75 1385.78125 969.0625 C 1384.6875 969.375 1385.78125 971.71875 1388.28125 974.6875 C 1390.625 977.5 1392.65625 980.625 1392.8125 981.71875 C 1392.96875 982.96875 1394.375 985.78125 1395.78125 987.96875 C 1399.375 993.4375 1397.5 993.28125 1390.625 987.34375 C 1387.65625 984.84375 1385 983.4375 1384.6875 984.375 C 1384.375 985.15625 1383.125 984.84375 1381.71875 983.59375 C 1378.59375 980.46875 1376.5625 982.03125 1376.5625 987.5 C 1376.5625 990 1375.78125 992.5 1374.84375 992.96875 C 1373.90625 993.59375 1372.65625 995.625 1371.875 997.5 C 1370.625 1000.46875 1370.46875 1000.3125 1370.3125 996.09375 C 1370.15625 989.21875 1367.96875 986.25 1365.78125 990 C 1364.21875 992.8125 1364.21875 992.8125 1364.0625 989.84375 C 1363.90625 987.34375 1363.59375 987.1875 1362.8125 989.0625 C 1358.4375 999.0625 1354.375 999.84375 1347.03125 992.65625 C 1343.59375 989.375 1342.96875 989.21875 1341.71875 991.40625 C 1340.625 993.4375 1341.40625 995.3125 1345 998.90625 C 1358.125 1012.96875 1371.40625 1036.25 1369.53125 1042.03125 C 1368.28125 1045.9375 1352.65625 1056.71875 1339.53125 1062.65625 C 1327.65625 1067.96875 1310.46875 1072.8125 1295.78125 1075 C 1289.84375 1075.78125 1283.90625 1077.8125 1280.9375 1079.84375 C 1278.125 1081.875 1274.84375 1083.59375 1273.75 1083.90625 C 1271.5625 1084.21875 1267.03125 1087.8125 1259.21875 1095.3125 C 1256.875 1097.5 1253.4375 1100.3125 1251.5625 1101.5625 C 1249.53125 1102.8125 1244.6875 1106.40625 1240.78125 1109.53125 C 1236.875 1112.5 1229.21875 1117.96875 1223.90625 1121.40625 C 1207.5 1132.34375 1200.46875 1139.6875 1189.6875 1157.1875 C 1187.96875 1160.15625 1185.9375 1162.03125 1185.46875 1161.40625 C 1184.84375 1160.9375 1184.375 1161.40625 1184.375 1162.65625 C 1184.375 1163.90625 1181.5625 1168.125 1178.28125 1171.875 C 1174.84375 1175.78125 1171.09375 1180.625 1170 1182.8125 C 1166.25 1190.15625 1154.53125 1204.6875 1149.53125 1208.28125 C 1146.71875 1210.3125 1140.3125 1213.125 1135.15625 1214.375 C 1118.90625 1218.75 1085.625 1228.28125 1071.09375 1232.96875 C 1041.25 1242.34375 1015.625 1250 996.09375 1255.46875 C 984.0625 1258.90625 974.375 1262.5 972.34375 1264.375 C 969.375 1267.1875 967.5 1267.5 959.375 1266.71875 C 953.125 1266.25 949.375 1266.5625 947.96875 1267.8125 C 947.03125 1268.90625 944.6875 1269.6875 942.96875 1269.84375 C 941.25 1269.84375 927.03125 1273.90625 911.25 1278.75 C 884.21875 1287.03125 878.125 1288.59375 880 1286.71875 C 881.09375 1285.46875 942.1875 1264.53125 950.46875 1262.34375 C 954.6875 1261.40625 957.34375 1260 956.40625 1259.53125 C 955.46875 1258.90625 957.1875 1257.5 960.15625 1256.40625 C 963.125 1255.3125 965.625 1253.75 965.625 1252.96875 C 965.625 1252.1875 967.03125 1251.5625 968.75 1251.5625 C 970.46875 1251.5625 971.875 1252.1875 971.875 1252.96875 C 971.875 1253.75 982.96875 1250.625 996.5625 1245.9375 C 1027.5 1235.15625 1031.40625 1233.90625 1032.5 1235 C 1032.96875 1235.46875 1032.1875 1235.9375 1030.78125 1235.9375 C 1029.375 1235.9375 1027.96875 1236.5625 1027.34375 1237.34375 C 1026.875 1238.28125 1030.78125 1237.5 1035.9375 1235.78125 C 1041.09375 1233.90625 1045.3125 1232.1875 1045.3125 1231.71875 C 1045.3125 1231.25 1044.0625 1231.40625 1042.65625 1231.875 C 1040.3125 1232.65625 1040.46875 1232.34375 1042.96875 1230.46875 C 1044.6875 1229.0625 1047.65625 1228.4375 1050 1228.75 C 1052.1875 1229.21875 1056.09375 1228.59375 1058.59375 1227.34375 C 1062.34375 1225.625 1062.65625 1225.15625 1060.15625 1225 C 1058.4375 1225 1062.34375 1222.65625 1068.75 1220.15625 C 1075.15625 1217.5 1081.25 1214.6875 1082.1875 1214.0625 C 1082.96875 1213.28125 1091.5625 1209.21875 1101.09375 1205 C 1110.625 1200.78125 1120.625 1195.78125 1123.125 1194.0625 C 1126.5625 1191.5625 1128.125 1191.25 1129.375 1192.5 C 1133.59375 1196.71875 1130.78125 1190.78125 1121.875 1177.03125 C 1116.71875 1169.0625 1112.8125 1162.5 1113.28125 1162.5 C 1113.75 1162.5 1113.4375 1161.09375 1112.5 1159.375 C 1109.53125 1153.75 1112.03125 1156.09375 1117.96875 1164.375 C 1125.15625 1174.21875 1134.375 1184.375 1136.25 1184.375 C 1137.03125 1184.375 1137.34375 1183.75 1136.875 1182.96875 C 1136.40625 1182.34375 1137.65625 1182.03125 1139.6875 1182.34375 C 1143.75 1183.125 1151.25 1177.03125 1158.125 1167.65625 C 1160.15625 1164.84375 1164.53125 1158.75 1167.96875 1154.0625 C 1171.40625 1149.21875 1175.3125 1145.46875 1176.5625 1145.78125 C 1177.8125 1145.9375 1178.75 1145.15625 1178.4375 1144.0625 C 1178.28125 1142.96875 1180.78125 1138.4375 1184.0625 1133.90625 C 1191.875 1123.125 1206.09375 1100.15625 1213.4375 1086.71875 C 1216.5625 1080.625 1220.625 1073.90625 1222.1875 1071.40625 C 1225.15625 1067.34375 1225.15625 1067.1875 1222.34375 1066.09375 C 1217.34375 1064.375 1194.6875 1053.125 1188.28125 1049.375 C 1183.125 1046.25 1178.28125 1045.3125 1161.71875 1043.90625 C 1135.9375 1041.71875 1107.96875 1037.03125 1089.375 1031.71875 C 1076.71875 1028.28125 1074.21875 1027.96875 1070.9375 1029.6875 C 1066.40625 1032.1875 1056.5625 1032.5 1033.90625 1030.78125 L 1016.875 1029.53125 L 1020.46875 1034.6875 C 1022.5 1037.5 1025.3125 1041.25 1026.875 1042.96875 C 1031.40625 1048.4375 1042.5 1062.8125 1054.6875 1078.90625 C 1061.25 1087.5 1071.25 1100.625 1077.03125 1108.125 C 1082.8125 1115.625 1087.5 1122.5 1087.5 1123.28125 C 1087.5 1123.90625 1090.46875 1127.8125 1093.90625 1131.875 C 1098.90625 1137.65625 1100 1139.6875 1098.59375 1141.09375 C 1097.1875 1142.5 1096.875 1142.5 1097.65625 1140.625 C 1098.125 1139.21875 1097.1875 1137.65625 1095.15625 1136.71875 C 1093.28125 1135.78125 1091.875 1134.375 1091.875 1133.59375 C 1091.875 1132.65625 1090.9375 1131.40625 1089.6875 1130.78125 C 1088.4375 1130 1085.78125 1127.1875 1083.90625 1124.375 C 1082.03125 1121.40625 1072.03125 1108.75 1061.71875 1095.9375 C 1051.25 1083.125 1037.03125 1065.15625 1030 1055.9375 C 1009.375 1028.90625 1011.40625 1030.46875 998.28125 1032.65625 C 992.34375 1033.59375 986.71875 1034.0625 985.9375 1033.59375 C 983.90625 1032.34375 968.75 1029.375 962.5 1028.90625 C 959.53125 1028.75 956.5625 1029.375 955.9375 1030.3125 C 955.15625 1031.40625 954.6875 1031.40625 954.6875 1030 C 954.6875 1028.90625 954.0625 1028.28125 953.4375 1028.75 C 952.1875 1029.53125 922.65625 1029.84375 914.84375 1029.21875 C 912.34375 1028.90625 908.4375 1028.28125 906.25 1027.65625 C 902.34375 1026.40625 856.71875 1025.3125 820.3125 1025.3125 C 809.53125 1025.3125 797.96875 1025.15625 794.53125 1024.84375 C 791.09375 1024.6875 775 1024.375 758.59375 1024.375 C 729.375 1024.21875 728.75 1024.375 718.59375 1028.75 C 709.84375 1032.5 707.65625 1032.8125 704.6875 1031.25 C 702.65625 1030.15625 691.875 1029.0625 678.28125 1028.75 C 663.75 1028.28125 652.1875 1027.03125 646.40625 1025.46875 C 637.96875 1023.125 636.5625 1023.125 626.09375 1025.46875 C 612.8125 1028.4375 592.8125 1031.25 584.375 1031.25 C 577.65625 1031.25 582.34375 1025.625 525.625 1102.03125 C 498.90625 1138.125 493.125 1145.625 487.03125 1153.59375 C 480.9375 1161.25 467.03125 1184.84375 467.65625 1186.5625 C 467.96875 1187.34375 469.21875 1188.59375 470.46875 1189.21875 C 474.6875 1191.71875 487.34375 1196.875 488.75 1196.875 C 489.53125 1196.875 491.71875 1198.28125 493.75 1200 C 495.78125 1201.71875 498.4375 1203.125 499.84375 1203.125 C 505.3125 1203.125 524.21875 1214.375 522.1875 1216.40625 C 521.5625 1217.1875 521.875 1217.1875 522.8125 1216.71875 C 524.84375 1215.46875 536.71875 1219.375 550.78125 1225.78125 C 555.9375 1227.96875 561.25 1230.15625 562.5 1230.46875 C 563.75 1230.9375 572.65625 1233.90625 582.34375 1237.34375 C 592.5 1240.9375 600.3125 1242.96875 600.78125 1242.1875 C 602.34375 1239.6875 606.71875 1240.3125 605.625 1242.96875 C 605.15625 1244.375 605.625 1245.3125 607.03125 1245.3125 C 608.28125 1245.3125 610.625 1246.5625 612.34375 1248.28125 C 613.90625 1249.84375 619.6875 1252.65625 625.15625 1254.53125 C 630.625 1256.40625 636.25 1258.59375 637.5 1259.53125 C 639.21875 1260.78125 638.90625 1260.78125 635.9375 1259.84375 C 633.75 1259.21875 629.84375 1258.59375 627.03125 1258.59375 C 624.375 1258.59375 622.5 1258.125 622.65625 1257.65625 C 622.96875 1257.1875 618.59375 1256.71875 612.96875 1256.5625 C 605.78125 1256.25 600.15625 1255.15625 594.6875 1252.5 C 590.3125 1250.46875 581.40625 1247.1875 575 1245.15625 C 568.59375 1243.28125 562.96875 1241.09375 562.8125 1240.3125 C 562.5 1239.6875 561.09375 1239.0625 559.53125 1239.0625 C 558.125 1239.0625 550.625 1237.03125 542.96875 1234.375 C 527.8125 1229.21875 526.09375 1228.90625 529.6875 1231.40625 C 534.84375 1235 518.4375 1230.625 484.375 1219.375 C 437.8125 1203.90625 440.78125 1205.3125 437.5 1197.65625 C 435.9375 1194.0625 432.65625 1188.75 430.15625 1185.78125 C 427.65625 1182.8125 423.75 1177.65625 421.40625 1174.0625 C 419.0625 1170.625 415.78125 1166.25 414.21875 1164.53125 C 412.65625 1162.8125 410 1159.0625 408.59375 1156.09375 C 403.125 1145.78125 386.09375 1123.75 368.75 1104.6875 C 362.03125 1097.34375 351.71875 1085.625 345.9375 1078.75 C 335.46875 1066.40625 332.1875 1062.34375 312.34375 1037.03125 C 307.03125 1030.46875 302.1875 1025 301.40625 1025 C 300.625 1025 300 1024.21875 300 1023.28125 C 300 1020.625 294.6875 1014.53125 292.96875 1015.15625 C 290.9375 1015.78125 280 1006.09375 276.25 1000.46875 L 273.4375 996.09375 L 274.53125 1001.40625 C 275.3125 1006.09375 275.15625 1006.5625 272.8125 1005.78125 C 270.78125 1005 269.84375 1005.625 269.21875 1007.8125 C 268.75 1009.53125 267.8125 1010.9375 267.03125 1010.9375 C 266.25 1010.9375 265.625 1012.03125 265.625 1013.28125 C 265.625 1014.53125 265 1015.625 264.21875 1015.625 C 262.96875 1015.625 260 990.78125 260.78125 986.40625 C 260.9375 985.3125 259.53125 983.75 257.5 982.65625 C 254.6875 981.09375 253.75 981.25 251.40625 984.21875 C 249.84375 986.09375 246.875 987.5 244.6875 987.5 C 240.625 987.5 240.625 987.34375 243.125 983.59375 C 245.46875 979.84375 245.46875 979.6875 242.65625 979.6875 C 240.9375 979.6875 238.28125 980.78125 236.5625 982.03125 C 235 983.28125 232.96875 984.375 232.1875 984.375 C 230 984.375 245.78125 972.03125 250.46875 969.84375 C 253.4375 968.59375 254.53125 967.03125 254.0625 965.15625 C 253.75 963.75 254.21875 962.5 255 962.5 C 259.6875 962.5 247.96875 954.21875 242.8125 953.90625 C 241.875 953.90625 240 953.125 238.90625 952.1875 C 237.65625 951.09375 235.15625 949.84375 233.28125 949.375 C 231.25 948.75 229.6875 947.65625 229.6875 947.03125 C 229.6875 946.40625 228.125 944.21875 226.40625 942.34375 C 223.90625 939.6875 223.4375 938.4375 224.84375 937.5 C 227.65625 935.78125 223.125 934.375 215 934.375 C 197.34375 934.375 152.5 921.40625 132.8125 910.625 C 115.625 901.25 101.5625 890.46875 101.5625 886.71875 C 101.5625 885.78125 107.65625 877.96875 115 869.375 C 142.65625 837.1875 176.40625 780.3125 196.09375 732.5 L 200.46875 721.875 L 195.9375 712.1875 C 185 687.96875 190.625 663.28125 217.1875 618.90625 C 223.125 608.90625 231.875 596.5625 236.71875 591.40625 C 241.40625 586.25 245.3125 580.78125 245.3125 579.21875 C 245.3125 577.65625 249.53125 572.1875 254.53125 567.03125 L 263.75 557.96875 L 260 553.90625 C 258.125 551.71875 255.78125 550 255.15625 550 C 254.53125 549.84375 250.46875 546.71875 246.09375 542.8125 L 238.28125 535.625 L 250.3125 542.03125 L 262.5 548.4375 L 265.9375 543.75 C 267.96875 540.78125 269.84375 539.6875 270.9375 540.46875 C 274.375 543.28125 278.90625 542.96875 281.40625 540 C 282.8125 538.28125 286.25 536.71875 289.6875 536.5625 C 293.90625 536.25 297.03125 534.53125 300.46875 530.9375 C 306.71875 524.53125 315.78125 519.53125 317.1875 521.71875 C 317.65625 522.65625 320.625 520 323.4375 515.78125 C 326.40625 511.40625 335.9375 498.59375 344.53125 487.1875 C 365 460.15625 385.9375 430.46875 385.9375 428.4375 C 385.9375 425.9375 375.3125 417.34375 371.09375 416.25 C 368.90625 415.78125 367.65625 414.6875 367.96875 413.90625 C 368.4375 413.125 367.1875 412.1875 365.15625 411.71875 C 361.5625 410.78125 353.75 414.0625 342.96875 421.09375 C 335.15625 426.40625 340.3125 420.625 349.6875 413.75 C 354.53125 410.15625 358.90625 407.03125 359.21875 406.875 C 360.625 405.78125 355.15625 400.9375 350.3125 398.90625 C 345.3125 396.875 329.6875 386.25 329.6875 385 C 329.6875 384.21875 350.78125 395.46875 359.84375 401.25 L 365.9375 404.84375 L 368.59375 401.71875 C 370.15625 399.84375 372.1875 398.4375 373.125 398.4375 C 374.84375 398.4375 376.875 403.125 376.40625 405.625 C 375.625 410.3125 381.40625 417.65625 387.65625 419.53125 C 390.46875 420.46875 392.1875 419.53125 395.625 415.46875 C 404.6875 404.53125 422.03125 377.1875 431.25 359.375 C 436.40625 349.21875 442.34375 338.75 444.53125 336.25 C 448.4375 331.71875 456.40625 328.59375 479.6875 322.96875 C 494.0625 319.53125 565.46875 292.8125 722.65625 231.71875 C 757.03125 218.28125 787.34375 206.875 789.84375 206.25 C 796.25 204.84375 802.5 206.71875 856.25 226.875 Z M 856.25 226.875 "/>
<path style=" stroke:none;fill-rule:nonzero;fill:rgb(0%,0%,0%);fill-opacity:1;" d="M 782.1875 213.28125 C 764.84375 219.53125 757.65625 222.8125 758.75 223.90625 C 759.375 224.53125 758.125 225 755.9375 225 C 750.625 225 737.5 229.6875 737.5 231.5625 C 737.5 232.34375 736.875 232.65625 736.09375 232.1875 C 734.84375 231.25 728.59375 233.4375 717.65625 238.4375 C 715 239.6875 712.34375 240.625 711.875 240.625 C 710.3125 240.625 696.25 247.34375 695.3125 248.4375 C 694.84375 249.0625 693.4375 249.53125 692.1875 249.53125 C 687.34375 249.53125 632.8125 272.34375 633.90625 273.90625 C 634.53125 274.84375 633.90625 275.15625 632.34375 274.53125 C 630.15625 273.75 607.65625 281.5625 600.625 285.78125 C 597.8125 287.34375 597.96875 287.34375 601.25 287.5 C 605.15625 287.5 605.625 288.90625 602.8125 292.1875 C 601.71875 293.4375 602.1875 293.28125 604.0625 291.71875 C 606.71875 289.53125 607.34375 289.53125 607.34375 291.40625 C 607.34375 292.65625 606.71875 293.28125 606.09375 292.8125 C 605.46875 292.5 604.21875 293.4375 603.28125 294.84375 C 601.71875 297.5 601.5625 297.34375 600.625 294.0625 C 599.6875 290.78125 599.53125 290.78125 597.5 293.28125 C 596.40625 294.84375 595.3125 295.46875 595.3125 294.6875 C 595.3125 293.75 594.21875 294.53125 592.8125 296.25 C 591.09375 298.28125 590.625 298.4375 591.09375 296.71875 C 591.5625 295.3125 590.9375 294.21875 589.6875 294.21875 C 588.59375 294.21875 587.96875 294.84375 588.28125 295.46875 C 589.375 297.1875 587.34375 301.71875 585.9375 300.78125 C 585.3125 300.3125 584.375 301.09375 583.75 302.34375 C 583.28125 303.59375 583.59375 305 584.375 305.46875 C 585.3125 306.09375 585.9375 305.625 585.9375 304.84375 C 585.9375 303.90625 586.71875 303.125 587.8125 303.125 C 588.75 303.125 588.28125 304.53125 586.71875 306.25 C 584.0625 309.21875 583.75 309.21875 580.78125 306.71875 C 577.8125 303.90625 577.65625 304.0625 579.6875 307.8125 C 581.25 311.09375 581.25 311.40625 579.53125 309.6875 C 577.1875 307.5 574.375 307.1875 575.625 309.21875 C 576.09375 310 574.53125 310.9375 572.03125 311.25 C 568.4375 311.71875 567.65625 311.40625 568.28125 309.53125 C 568.59375 308.125 568.125 308.4375 566.875 310.15625 C 565.78125 311.875 563.75 313.4375 562.5 313.75 C 561.25 314.0625 559.84375 314.84375 559.375 315.46875 C 558.90625 316.25 557.34375 316.5625 555.78125 316.25 C 554.375 316.09375 553.4375 316.5625 554.0625 317.34375 C 554.84375 318.75 551.5625 319.375 547.34375 318.90625 C 546.25 318.75 545.3125 319.375 545.3125 320.46875 C 545.3125 321.40625 544.21875 321.875 542.96875 321.25 C 541.71875 320.78125 540.625 321.25 540.625 322.34375 C 540.625 323.75 540.3125 323.75 539.375 322.34375 C 538.4375 320.78125 537.34375 320.9375 534.6875 322.8125 C 532.8125 324.0625 531.5625 325.78125 531.875 326.40625 C 532.34375 327.03125 531.25 327.65625 529.53125 327.65625 C 527.65625 327.8125 526.875 327.1875 527.5 326.25 C 528.125 325.15625 527.8125 325 526.875 325.625 C 522.8125 328.125 527.03125 330.78125 535.625 331.09375 C 550.46875 331.71875 546.875 332.8125 529.53125 332.96875 C 520.625 333.125 509.84375 333.4375 505.625 333.75 C 497.34375 334.375 473.59375 339.6875 466.875 342.34375 C 460.625 344.84375 457.8125 343.125 463.28125 340.15625 C 465.9375 338.75 467.03125 337.65625 465.9375 337.5 C 462.34375 337.5 452.96875 347.5 452.5 352.03125 C 452.1875 354.53125 451.09375 357.34375 450 358.28125 C 448.4375 359.84375 448.125 359.53125 449.0625 357.03125 C 449.84375 354.53125 449.53125 354.6875 447.03125 357.8125 C 445.3125 359.84375 444.21875 362.1875 444.6875 362.65625 C 445 363.28125 444.84375 364.0625 444.21875 364.375 C 443.4375 364.53125 441.875 366.71875 440.625 369.0625 C 439.375 371.40625 437.65625 373.28125 436.875 373.28125 C 436.25 373.125 431.09375 379.375 425.625 387.03125 C 420 394.53125 414.53125 402.03125 413.4375 403.4375 C 412.1875 404.84375 411.5625 407.5 412.03125 409.375 C 412.8125 412.03125 412.34375 412.65625 410.15625 412.1875 C 406.09375 411.5625 394.84375 427.5 396.09375 432.34375 C 396.5625 434.6875 396.25 435.625 395 435.15625 C 391.875 434.0625 389.0625 437.03125 378.125 452.34375 C 370.3125 463.28125 341.71875 502.34375 334.84375 511.71875 C 329.6875 518.4375 329.53125 519.0625 333.90625 515 C 336.5625 512.65625 339.53125 511.09375 340.625 511.71875 C 341.5625 512.34375 343.28125 511.875 344.53125 510.9375 C 345.78125 509.84375 346.875 509.53125 346.875 510.15625 C 346.875 510.78125 347.96875 510.46875 349.21875 509.375 C 350.46875 508.28125 352.65625 507.8125 353.90625 508.4375 C 355.15625 508.90625 356.25 508.59375 356.25 507.8125 C 356.25 506.875 357.1875 506.25 358.4375 506.25 C 359.6875 506.25 362.65625 505.46875 365.15625 504.375 C 370.15625 502.34375 369.21875 502.65625 384.375 498.4375 C 390.78125 496.5625 399.6875 494.375 403.90625 493.4375 C 408.28125 492.65625 412.5 491.40625 413.28125 490.625 C 414.21875 490 417.96875 489.0625 421.875 488.4375 C 434.53125 486.875 439.21875 485.9375 441.09375 484.84375 C 442.1875 484.21875 443.28125 483.59375 443.75 483.4375 C 444.21875 483.4375 447.65625 482.5 451.5625 481.40625 C 455.46875 480.3125 459.375 479.21875 460.15625 479.0625 C 465.3125 477.96875 468.75 476.09375 468.75 474.0625 C 468.75 472.1875 469.0625 472.1875 470.9375 473.75 C 472.1875 474.84375 472.8125 476.25 472.34375 476.875 C 471.09375 479.21875 473.125 478.125 475.15625 475.46875 C 477.03125 473.28125 477.03125 472.96875 475 474.0625 C 473.75 474.6875 474.0625 474.21875 475.625 472.8125 C 477.1875 471.5625 479.21875 470.78125 479.84375 471.25 C 480.625 471.71875 481.25 471.09375 481.25 470 C 481.25 468.59375 481.71875 468.59375 482.8125 470.3125 C 484.0625 472.1875 484.375 472.1875 484.375 470.46875 C 484.375 468.75 484.84375 468.75 486.71875 470.3125 C 488.75 472.03125 488.90625 471.875 488.28125 469.84375 C 487.65625 468.59375 487.96875 467.03125 488.90625 466.40625 C 489.84375 465.9375 490.625 466.09375 490.625 466.875 C 490.625 469.21875 495.9375 468.28125 498.59375 465.3125 C 500.46875 463.28125 501.5625 463.125 502.8125 464.375 C 504.21875 465.78125 504.375 465.3125 503.90625 462.8125 C 503.4375 459.84375 503.90625 459.53125 507.03125 460.3125 C 509.0625 460.78125 512.03125 460.46875 513.59375 459.375 C 516.09375 457.8125 516.09375 457.8125 512.96875 458.59375 C 510.78125 459.21875 509.375 458.90625 509.375 457.96875 C 509.375 457.03125 510.3125 456.40625 511.40625 456.5625 C 512.34375 456.875 513.125 455.9375 512.8125 454.6875 C 512.34375 452.8125 512.65625 452.65625 514.21875 454.21875 C 517.34375 457.1875 519.375 456.5625 517.03125 453.4375 C 515 450.9375 515 450.9375 518.125 453.4375 C 519.84375 455 521.875 456.25 522.5 456.25 C 524.21875 456.25 528.125 452.03125 528.125 450.15625 C 528.125 449.21875 529.21875 448.4375 530.46875 448.4375 C 531.71875 448.4375 532.8125 449.21875 532.8125 450.3125 C 532.8125 451.25 533.28125 451.5625 533.75 451.09375 C 534.375 450.46875 534.0625 449.21875 533.125 447.96875 C 531.875 446.40625 532.1875 445.9375 534.53125 445.78125 C 536.09375 445.625 537.5 446.5625 537.5 447.65625 C 537.5 449.0625 538.4375 449.53125 539.84375 449.0625 C 541.09375 448.4375 541.71875 447.5 541.25 446.71875 C 540.78125 445.9375 541.5625 445.78125 542.96875 446.25 C 544.375 446.875 546.875 445.9375 548.59375 444.375 C 551.25 441.875 552.03125 441.875 553.28125 443.75 C 554.53125 445.625 554.84375 445.46875 554.53125 442.96875 C 554.0625 435.9375 554.53125 434.6875 558.125 435.625 C 560.15625 436.09375 561.09375 435.78125 560.46875 434.84375 C 559.84375 433.90625 560.46875 432.8125 561.71875 432.1875 C 564.53125 431.25 564.84375 432.96875 562.34375 435.46875 C 560.9375 436.875 561.25 437.34375 563.59375 437.03125 C 565.46875 437.03125 566.5625 436.09375 566.09375 435 C 565.625 433.90625 566.25 431.71875 567.1875 430.15625 C 568.75 427.65625 568.90625 427.65625 568.28125 430.78125 C 567.5 433.90625 567.8125 434.21875 570.78125 432.5 C 575.3125 430.3125 576.5625 428.90625 572.96875 430.15625 C 571.25 430.78125 570.46875 430.625 571.09375 429.6875 C 571.5625 428.75 573.125 428.125 574.375 428.125 C 575.625 428.125 576.40625 427.65625 576.09375 426.875 C 575.625 426.25 576.25 425 577.34375 423.90625 C 579.0625 422.34375 579.6875 422.34375 580.3125 423.90625 C 581.40625 426.5625 586.25 420.3125 585.15625 417.5 C 584.84375 416.40625 585.15625 415.9375 585.9375 416.40625 C 586.875 416.875 587.5 416.5625 587.5 415.625 C 587.5 414.6875 588.125 414.375 589.0625 414.84375 C 590 415.46875 590.15625 414.6875 589.53125 413.125 C 588.90625 411.40625 589.21875 410.78125 590.15625 411.40625 C 591.09375 412.03125 592.34375 411.40625 592.8125 410 C 593.59375 407.96875 594.21875 407.8125 596.09375 409.375 C 597.34375 410.46875 597.96875 411.875 597.5 412.65625 C 597.03125 413.4375 597.34375 414.0625 598.28125 414.0625 C 599.0625 414.0625 599.6875 412.1875 599.53125 409.84375 C 599.21875 406.71875 600 405.46875 602.34375 405.15625 L 605.46875 404.6875 L 602.34375 406.09375 C 599.6875 407.34375 600 407.5 604.0625 407.34375 C 607.03125 407.1875 608.75 406.25 608.28125 405.15625 C 607.96875 404.21875 610.15625 402.1875 613.4375 400.625 L 619.21875 397.8125 L 615.625 395 C 613.75 393.4375 612.8125 392.1875 613.59375 392.1875 C 614.375 392.1875 615.9375 393.125 617.03125 394.0625 C 618.75 395.78125 619.0625 395.625 618.28125 393.28125 C 616.875 389.375 618.59375 390 620.46875 394.0625 C 621.875 397.5 621.875 397.34375 621.40625 393.4375 C 621.09375 391.09375 621.25 389.53125 622.03125 389.84375 C 622.65625 390.3125 623.59375 390 624.21875 389.0625 C 624.84375 388.125 625.9375 387.8125 626.71875 388.4375 C 627.5 388.90625 627.8125 390 627.34375 390.78125 C 625.78125 393.125 630 392.34375 632.96875 389.6875 C 635.46875 387.34375 635.625 387.5 635 390.9375 L 634.21875 394.53125 L 636.25 390.9375 C 637.5 389.0625 638.90625 387.8125 639.53125 388.4375 C 640 389.0625 641.09375 388.28125 641.5625 386.875 C 642.34375 385 642.96875 384.6875 643.75 385.9375 C 644.53125 387.03125 645.46875 386.875 647.03125 385 C 648.90625 382.5 648.90625 382.34375 646.875 383.59375 C 645.3125 384.375 645.625 383.75 647.5 381.5625 C 650 378.59375 653.125 378.125 653.125 380.625 C 653.125 381.09375 652.5 380.9375 651.5625 380.46875 C 650.78125 380 650 380.15625 650 381.09375 C 650 381.875 651.40625 382.5 652.96875 382.34375 C 655.3125 382.1875 655.625 381.5625 654.53125 379.53125 C 652.5 375.625 652.8125 374.53125 655.46875 375.625 C 657.5 376.40625 660.9375 375.15625 665.625 372.1875 C 665.9375 371.875 665.3125 371.09375 664.21875 370.3125 C 662.65625 369.53125 663.28125 369.0625 666.09375 369.21875 C 668.28125 369.375 669.6875 370 669.375 370.625 C 669.0625 371.09375 670 371.40625 671.40625 371.09375 C 672.96875 370.78125 675.625 370.46875 677.34375 370.46875 C 679.84375 370.3125 680 370 678.28125 368.90625 C 677.03125 368.125 675.15625 367.8125 673.90625 368.28125 C 672.8125 368.75 671.875 368.4375 671.875 367.5 C 671.875 366.71875 674.21875 366.25 677.34375 366.71875 C 680.46875 367.1875 684.21875 367.03125 685.625 366.40625 C 688.125 365.46875 688.125 365.3125 685.46875 363.28125 C 683.90625 362.1875 683.28125 360.78125 684.21875 360.3125 C 685 359.6875 686.09375 360 686.71875 360.78125 C 687.1875 361.71875 690.46875 362.03125 693.90625 361.5625 C 698.125 361.09375 700 361.40625 699.21875 362.34375 C 698.59375 363.4375 699.375 363.59375 700.9375 362.96875 C 702.65625 362.34375 702.96875 361.71875 701.875 361.25 C 700.625 360.9375 700.9375 359.53125 702.8125 356.5625 C 705.15625 352.96875 705.15625 352.65625 702.96875 353.4375 C 701.5625 354.0625 700.46875 353.59375 700.46875 352.34375 C 700.46875 350.78125 701.25 350.625 703.125 351.5625 C 704.6875 352.34375 706.40625 352.5 707.03125 351.875 C 707.8125 351.25 707.8125 352.03125 707.34375 353.4375 C 706.875 355 707.1875 356.5625 708.125 357.1875 C 709.0625 357.8125 709.375 357.65625 708.90625 356.875 C 708.4375 355.9375 708.59375 354.375 709.375 353.125 C 710.15625 351.71875 710 350 708.90625 348.59375 C 707.65625 347.03125 708.28125 347.1875 711.09375 349.0625 C 714.84375 351.40625 715.46875 351.40625 717.65625 349.375 C 718.90625 348.125 720.3125 347.5 720.9375 347.96875 C 721.40625 348.59375 721.875 347.96875 721.875 346.71875 C 721.875 344.84375 722.1875 344.84375 723.4375 346.875 C 724.375 348.4375 724.0625 350.15625 722.1875 352.1875 C 719.53125 355.15625 719.53125 355.15625 723.75 352.1875 C 726.09375 350.625 728.28125 347.65625 728.90625 345.625 C 729.375 343.75 730.625 342.1875 731.875 342.1875 C 735.78125 342.1875 740.9375 336.25 739.84375 332.96875 C 738.90625 329.84375 740.9375 328.75 745.78125 329.53125 C 746.40625 329.6875 747.34375 328.59375 747.8125 327.34375 C 748.4375 326.09375 749.375 325 750.3125 325 C 751.09375 325 751.25 325.625 750.78125 326.5625 C 750.15625 327.5 750.9375 327.65625 752.5 327.03125 C 754.84375 326.09375 754.84375 325.9375 752.65625 324.21875 C 751.25 323.125 750.46875 321.875 751.09375 321.40625 C 752.8125 319.53125 757.8125 320.15625 757.8125 322.1875 C 757.8125 323.125 758.28125 323.4375 758.90625 322.8125 C 759.6875 322.1875 758.90625 320.625 757.1875 319.53125 C 754.375 317.5 754.53125 317.34375 758.4375 316.25 C 760.625 315.78125 762.5 314.21875 762.5 312.96875 C 762.5 311.71875 763.28125 311.25 764.0625 311.71875 C 765 312.1875 765.625 311.5625 765.625 310.15625 C 765.625 308.59375 766.40625 308.125 767.5 308.75 C 768.75 309.53125 768.90625 308.90625 768.28125 306.875 C 767.34375 304.21875 767.34375 304.21875 769.21875 306.5625 C 771.09375 308.90625 771.40625 308.90625 773.28125 305.9375 C 774.6875 303.59375 775.625 303.28125 777.34375 304.6875 C 778.90625 306.09375 779.6875 305.78125 780.3125 303.4375 C 781.5625 299.6875 786.5625 298.125 789.21875 300.625 C 790.625 301.875 790.78125 301.875 790 300.3125 C 789.375 299.21875 789.84375 298.4375 791.25 298.4375 C 792.65625 298.4375 793.75 297.1875 793.90625 295.625 C 793.90625 294.21875 794.21875 291.875 794.375 290.625 C 794.6875 289.375 795.3125 281.25 795.9375 272.8125 C 796.40625 264.21875 797.34375 256.875 797.65625 256.40625 C 798.125 256.09375 798.4375 262.03125 798.4375 269.84375 C 798.4375 293.125 800.15625 312.5 802.34375 312.5 C 803.4375 312.5 806.09375 316.25 808.4375 320.625 C 810.625 325.15625 812.5 327.96875 812.5 327.03125 C 812.5 323.90625 820.3125 328.125 820.3125 331.09375 C 820.3125 332.8125 820.78125 332.96875 821.5625 331.71875 C 822.34375 330.46875 823.4375 330.46875 825.625 332.1875 C 827.34375 333.4375 827.8125 334.375 826.875 334.375 C 825.78125 334.375 825 335.15625 825 336.25 C 825 337.1875 825.46875 337.5 825.9375 337.03125 C 827.5 335.625 833.125 338.90625 832.03125 340.625 C 831.5625 341.5625 832.03125 341.71875 833.28125 341.25 C 834.84375 340.625 836.25 342.5 837.8125 347.1875 C 838.90625 350.9375 840.78125 353.75 841.875 353.59375 C 842.96875 353.28125 843.75 353.90625 843.75 354.84375 C 843.75 355.625 844.6875 355.9375 845.78125 355.3125 C 847.03125 354.53125 847.03125 355 845.46875 356.71875 C 843.59375 359.0625 843.75 359.375 846.09375 359.375 C 847.96875 359.375 848.59375 360.3125 847.96875 362.5 C 847.5 364.375 847.8125 365.3125 848.75 364.6875 C 849.6875 364.0625 851.09375 364.6875 851.875 365.78125 C 853.125 367.5 853.28125 367.34375 852.5 365.15625 C 851.40625 361.875 852.65625 361.71875 855.625 364.84375 C 858.28125 367.5 857.03125 370.9375 854.21875 369.375 C 853.125 368.75 852.8125 368.90625 853.4375 369.53125 C 855.15625 371.40625 862.8125 372.03125 861.71875 370.15625 C 861.09375 369.375 862.03125 369.21875 863.4375 369.84375 C 865.15625 370.46875 865.46875 371.09375 864.375 371.5625 C 863.28125 371.875 862.5 372.8125 862.5 373.59375 C 862.5 374.53125 863.28125 374.6875 864.0625 374.21875 C 865 373.75 865.625 374.375 865.625 375.625 C 865.625 377.03125 866.875 378.125 868.59375 378.125 C 870.3125 378.125 872.1875 378.90625 872.65625 379.6875 C 873.4375 380.9375 874.375 380.78125 875.9375 379.53125 C 878.90625 377.1875 878.75 379.21875 875.78125 382.1875 C 874.53125 383.59375 873.4375 385.46875 873.4375 386.40625 C 873.4375 387.5 874.0625 387.34375 875 385.9375 C 876.25 383.90625 876.5625 384.0625 876.5625 386.5625 C 876.5625 389.53125 876.71875 389.53125 879.84375 386.71875 C 882.96875 383.75 882.96875 383.75 881.40625 387.8125 C 880 391.40625 880.15625 391.875 882.34375 391.09375 C 884.21875 390.3125 884.53125 390.9375 883.59375 393.90625 C 882.5 397.34375 882.5 397.5 885.3125 394.6875 C 887.03125 392.8125 888.28125 392.34375 888.75 393.59375 C 889.0625 394.53125 890 395.3125 890.78125 395.3125 C 891.71875 395.3125 891.875 394.53125 891.25 393.4375 C 890.625 392.34375 890.78125 392.1875 891.875 392.8125 C 893.28125 393.59375 893.28125 394.84375 892.03125 397.34375 C 890.9375 399.21875 890.78125 400.3125 891.40625 399.53125 C 892.1875 398.90625 894.84375 400.3125 897.5 402.65625 C 900.15625 405.15625 901.25 405.78125 900 403.90625 C 897.8125 400.78125 897.8125 400.78125 901.09375 403.59375 C 903.59375 405.78125 904.53125 405.9375 905.15625 404.375 C 905.78125 402.65625 906.09375 402.65625 906.09375 404.375 C 906.25 405.46875 907.03125 405.9375 908.125 405.3125 C 909.21875 404.6875 909.375 404.84375 908.75 406.09375 C 908.125 407.03125 906.875 407.5 906.09375 407.03125 C 905.3125 406.40625 904.6875 406.875 904.6875 407.65625 C 904.6875 408.59375 905.78125 409.375 907.03125 409.375 C 908.28125 409.375 909.375 410 909.375 410.9375 C 909.375 411.71875 910.78125 412.5 912.34375 412.5 C 917.03125 412.5 920.46875 414.21875 919.21875 416.09375 C 918.59375 417.03125 919.21875 417.34375 920.46875 416.875 C 922.65625 416.09375 925.78125 418.28125 926.09375 420.78125 C 926.875 425.15625 927.65625 425.78125 930.46875 423.4375 C 933.125 421.25 933.28125 421.25 931.40625 424.53125 C 930 427.5 930 427.96875 931.875 427.1875 C 934.21875 426.25 939.375 430.9375 938.75 433.28125 C 938.28125 434.6875 951.5625 441.25 953.75 440.78125 C 954.53125 440.625 954.21875 441.71875 953.125 443.28125 C 951.875 444.84375 951.40625 445.625 952.1875 445 C 952.8125 444.375 955.78125 446.40625 958.75 449.375 C 961.71875 452.34375 965.15625 454.6875 966.5625 454.6875 C 967.8125 454.6875 969.21875 455.78125 969.6875 457.03125 C 970.3125 458.28125 971.25 459.0625 971.875 458.59375 C 972.5 458.125 973.4375 458.90625 974.0625 460.15625 C 974.53125 461.5625 976.875 462.5 979.6875 462.5 C 982.1875 462.5 984.375 463.28125 984.375 464.21875 C 984.375 465.46875 985.3125 465.3125 987.03125 463.90625 C 988.4375 462.65625 989.21875 462.5 988.59375 463.4375 C 987.1875 465.78125 997.5 475 1001.40625 475 C 1005.15625 475 1007.03125 477.5 1004.375 478.59375 C 1003.125 479.0625 1003.4375 479.53125 1005.15625 479.53125 C 1006.5625 479.6875 1007.8125 480.46875 1007.8125 481.40625 C 1007.8125 482.1875 1008.59375 482.5 1009.375 482.03125 C 1010.3125 481.40625 1010.46875 480.3125 1010 479.375 C 1009.21875 478.28125 1009.6875 478.125 1010.78125 478.75 C 1012.1875 479.6875 1012.03125 480.78125 1010 482.96875 C 1007.5 485.625 1007.5 485.9375 1009.84375 486.09375 C 1015.3125 486.5625 1015.9375 486.71875 1017.8125 489.375 C 1018.90625 490.9375 1020.3125 491.71875 1020.78125 491.25 C 1021.25 490.78125 1022.8125 492.1875 1024.21875 494.375 C 1026.875 498.28125 1031.09375 500.3125 1028.75 496.5625 C 1028.125 495.46875 1028.28125 495.3125 1029.53125 495.9375 C 1030.46875 496.5625 1030.9375 497.8125 1030.46875 498.59375 C 1029.84375 499.375 1030.625 500 1032.03125 500 C 1033.4375 500 1037.34375 502.8125 1040.625 506.25 C 1043.90625 509.6875 1047.34375 512.5 1048.28125 512.5 C 1049.21875 512.5 1051.25 513.75 1052.8125 515.15625 C 1058.75 520.9375 1064.0625 525 1065.625 525 C 1066.5625 525 1067.1875 525.625 1067.1875 526.25 C 1067.1875 526.875 1069.375 528.75 1071.875 530.15625 C 1076.25 532.8125 1078.90625 537.5 1074.6875 535 C 1073.125 534.21875 1073.125 534.53125 1074.6875 536.09375 C 1076.40625 537.96875 1076.875 537.96875 1077.96875 536.09375 C 1078.75 534.84375 1079.6875 534.6875 1080.3125 535.625 C 1080.78125 536.40625 1084.21875 537.1875 1087.8125 537.1875 C 1091.5625 537.1875 1099.84375 537.65625 1106.25 538.125 C 1112.65625 538.59375 1122.5 539.375 1127.8125 539.84375 C 1133.28125 540.3125 1138.4375 540.9375 1139.21875 541.5625 C 1140 542.03125 1140.625 541.5625 1140.625 540.46875 C 1140.625 539.21875 1141.25 539.21875 1142.96875 540.625 C 1144.21875 541.71875 1145.3125 542.03125 1145.3125 541.40625 C 1145.3125 540.78125 1146.40625 541.09375 1147.8125 542.1875 C 1149.53125 543.75 1157.65625 544.375 1176.25 544.53125 C 1190.625 544.84375 1207.34375 545.46875 1213.28125 546.25 C 1219.375 546.875 1224.84375 547.34375 1225.625 547.03125 C 1226.40625 546.875 1232.03125 547.96875 1238.125 549.375 C 1255 553.28125 1269.21875 554.53125 1271.40625 552.1875 C 1272.5 551.25 1272.8125 550 1272.34375 549.375 C 1271.71875 548.90625 1272.1875 548.4375 1273.125 548.4375 C 1274.0625 548.4375 1274.53125 547.34375 1274.0625 546.09375 C 1273.4375 544.53125 1274.0625 543.75 1276.40625 543.75 C 1278.90625 543.75 1279.53125 542.8125 1279.21875 540.15625 C 1278.90625 537.34375 1279.53125 536.875 1282.65625 537.1875 C 1286.25 537.8125 1286.09375 537.5 1280.46875 529.375 C 1277.03125 524.84375 1271.09375 516.875 1267.03125 511.71875 C 1263.125 506.5625 1247.03125 484.6875 1231.40625 463.28125 C 1184.0625 397.8125 1166.875 375 1165.46875 375.78125 C 1164.84375 376.25 1163.75 375.78125 1163.125 374.84375 C 1162.5 373.59375 1162.65625 373.4375 1163.75 374.0625 C 1167.03125 376.09375 1165.78125 372.5 1162.1875 369.375 C 1159.21875 366.875 1158.90625 366.875 1160.78125 369.21875 C 1162.8125 371.71875 1162.65625 371.875 1158.90625 370.46875 C 1156.71875 369.53125 1152.1875 369.0625 1148.90625 369.375 L 1142.96875 370 L 1142.1875 384.53125 L 1141.40625 399.21875 L 1140.15625 384.53125 C 1139.0625 372.5 1138.125 368.75 1135 364.6875 C 1130.9375 359.375 1125 345 1125 340.3125 C 1125 338.28125 1122.96875 337.5 1116.5625 336.71875 C 1111.875 336.09375 1107.5 335.9375 1106.71875 336.40625 C 1106.09375 336.875 1104.0625 336.25 1102.34375 335 C 1099.53125 332.96875 1099.53125 332.8125 1103.59375 332.8125 C 1108.59375 332.8125 1108.4375 332.96875 1105.46875 327.1875 C 1103.59375 323.4375 1100.78125 321.71875 1088.75 317.34375 C 1080.78125 314.53125 1062.34375 307.8125 1047.65625 302.34375 C 1033.125 297.03125 1013.75 290 1004.6875 286.71875 C 995.625 283.59375 982.34375 278.59375 975 275.625 C 967.65625 272.8125 951.5625 266.5625 939.0625 262.03125 C 926.5625 257.34375 891.09375 243.90625 860.15625 232.1875 C 829.21875 220.46875 801.25 210.625 797.8125 210.46875 C 794.375 210.15625 787.65625 211.40625 782.1875 213.28125 Z M 782.1875 213.28125 "/>
<path style=" stroke:none;fill-rule:nonzero;fill:rgb(0%,0%,0%);fill-opacity:1;" d="M 484.375 500.78125 C 420.78125 505.9375 374.0625 515.46875 335.9375 530.78125 C 319.6875 537.34375 297.03125 549.375 290 555.3125 C 284.53125 559.84375 284.84375 560.46875 297.8125 570.3125 L 306.25 576.875 L 315.9375 570.625 C 350.15625 548.4375 398.90625 532.96875 450 528.125 C 475.15625 525.78125 506.25 524.0625 506.25 525 C 506.25 525.46875 504.375 529.21875 502.1875 533.4375 C 494.6875 547.5 482.34375 588.90625 476.40625 619.53125 C 472.96875 637.5 472.8125 639.21875 475.15625 635.9375 C 476.5625 634.0625 476.71875 634.0625 475.9375 636.40625 C 475.46875 637.96875 475 640.15625 475 641.09375 C 475 642.03125 473.125 638.90625 470.78125 634.21875 C 454.21875 600.3125 431.40625 588.59375 396.25 596.09375 C 381.09375 599.375 364.0625 608.125 355.625 617.1875 C 340.15625 633.75 345.3125 642.5 378.4375 656.25 C 399.21875 664.84375 420.3125 674.53125 420.3125 675.46875 C 420.3125 675.9375 418.75 675.9375 416.875 675.46875 C 413.90625 674.84375 413.75 675 415.625 676.40625 C 420.15625 679.84375 423.90625 681.71875 422.8125 680 C 421.40625 677.65625 427.65625 679.0625 432.34375 682.03125 C 439.21875 686.5625 448.59375 697.03125 451.09375 702.8125 C 453.90625 709.21875 454.21875 730.15625 451.875 738.28125 C 450.9375 741.5625 450.625 738.4375 451.25 728.59375 C 452.5 705.3125 448.125 694.84375 433.4375 685.46875 C 423.59375 679.375 423.4375 680.15625 432.8125 688.59375 C 444.21875 698.90625 448.4375 708.28125 448.4375 723.75 C 448.4375 772.34375 391.40625 826.5625 313.28125 852.1875 C 282.1875 862.34375 251.875 867.03125 218.4375 867.1875 C 197.5 867.1875 175.9375 865 171.875 862.5 C 170.3125 861.5625 171.40625 859.375 176.25 853.75 C 184.53125 844.53125 197.1875 825.3125 210.46875 802.1875 C 219.21875 786.875 223.59375 777.34375 230.3125 758.59375 C 231.25 756.09375 232.1875 757.34375 234.375 764.6875 C 239.84375 781.875 251.09375 794.375 266.875 800.46875 C 276.40625 804.21875 297.8125 803.90625 313.4375 799.84375 C 329.53125 795.625 342.65625 788.59375 352.34375 778.90625 C 361.875 769.53125 365.625 762.03125 365.625 752.65625 C 365.625 736.875 354.375 729.0625 311.71875 715.46875 C 266.71875 700.9375 255.15625 695 247.5 681.875 C 242.03125 672.5 241.09375 661.09375 245 648.75 C 246.71875 643.4375 247.8125 639.0625 247.5 639.0625 C 247.03125 639.0625 245.3125 642.34375 243.59375 646.40625 C 240.15625 654.21875 238.90625 669.0625 241.09375 677.34375 L 242.1875 682.03125 L 240 677.34375 C 236.71875 670.625 237.03125 657.65625 240.625 647.34375 C 246.09375 631.875 266.25 608.28125 290.3125 589.53125 C 297.34375 583.90625 303.125 578.90625 303.125 578.4375 C 303.125 577.8125 297.65625 574.53125 290.78125 571.09375 L 278.59375 564.84375 L 271.09375 571.09375 C 245 592.65625 229.84375 611.71875 215.625 640.46875 C 204.84375 662.1875 200.78125 675.15625 200.9375 688.28125 C 200.9375 699.6875 205.78125 714.0625 209.53125 714.0625 C 212.8125 714.0625 210 723.90625 200.78125 744.84375 C 190.3125 768.59375 173.125 801.5625 161.25 820.9375 C 151.875 835.9375 128.59375 867.96875 119.375 878.125 C 116.25 881.5625 113.90625 884.6875 114.21875 885 C 133.28125 900.3125 145.625 907.03125 169.21875 914.84375 C 201.71875 925.46875 235.15625 927.8125 272.1875 921.71875 C 283.28125 919.84375 292.65625 918.75 293.125 919.21875 C 293.4375 919.53125 293.125 921.71875 292.34375 923.75 C 285.625 941.5625 290.78125 981.875 303.28125 1007.03125 C 312.5 1025.9375 336.71875 1043.59375 363.28125 1050.9375 C 375.9375 1054.375 406.5625 1055.625 421.5625 1053.125 C 438.125 1050.46875 458.4375 1044.375 469.21875 1038.90625 C 476.09375 1035.46875 482.65625 1033.75 496.5625 1031.875 C 539.0625 1026.40625 563.4375 1022.5 570.15625 1020.15625 C 574.375 1018.75 575.625 1018.90625 578.125 1021.09375 C 581.40625 1024.0625 582.1875 1024.0625 621.875 1017.96875 C 647.8125 1013.90625 695.46875 1009.84375 738.28125 1007.8125 C 767.96875 1006.5625 770.3125 1005.78125 780.46875 995.46875 C 783.75 991.875 787.03125 989.0625 787.65625 989.0625 C 788.28125 989.0625 789.53125 991.09375 790.625 993.59375 C 791.5625 996.09375 794.53125 1000 797.03125 1002.5 L 801.71875 1006.875 L 835.9375 1007.5 C 862.65625 1008.125 870.3125 1007.8125 870.3125 1006.25 C 870.3125 1004.84375 870.9375 1004.84375 872.34375 1005.9375 C 874.84375 1007.96875 951.5625 1011.71875 961.5625 1010.3125 C 968.4375 1009.21875 969.21875 1008.59375 971.40625 1003.125 L 973.90625 997.03125 L 979.21875 1002.5 C 990.625 1014.375 1009.6875 1020.15625 1040.78125 1021.40625 C 1060.46875 1022.1875 1064.21875 1021.875 1069.21875 1019.53125 C 1074.53125 1017.03125 1075.3125 1017.03125 1078.59375 1019.21875 C 1080.625 1020.46875 1085.15625 1022.34375 1088.59375 1023.28125 C 1100.15625 1026.40625 1155.3125 1035.78125 1172.5 1037.5 C 1184.84375 1038.75 1190.78125 1040 1193.90625 1042.34375 C 1201.5625 1047.8125 1220.78125 1056.09375 1232.96875 1059.21875 C 1273.125 1069.375 1308.125 1066.40625 1341.875 1049.6875 C 1350.78125 1045.3125 1358.28125 1041.09375 1358.75 1040.46875 C 1359.21875 1039.6875 1354.84375 1031.5625 1349.21875 1022.34375 C 1341.40625 1009.375 1336.71875 1003.4375 1328.75 996.875 C 1316.09375 986.25 1286.71875 955 1288.125 953.59375 C 1288.75 952.96875 1292.34375 953.28125 1296.09375 954.375 C 1306.5625 957.1875 1307.96875 956.875 1315.78125 949.53125 C 1323.90625 942.03125 1327.65625 935.9375 1328.4375 928.125 C 1329.0625 923.4375 1329.6875 922.65625 1332.96875 923.125 C 1339.53125 923.75 1323.59375 917.96875 1303.59375 912.34375 C 1285 907.1875 1284.375 906.875 1284.375 902.65625 C 1284.375 900.3125 1284.84375 898.4375 1285.3125 898.4375 C 1285.9375 898.4375 1297.96875 901.5625 1312.03125 905.46875 C 1333.75 911.40625 1360.625 917.8125 1368.75 918.75 C 1380 920.15625 1415 920.15625 1422.65625 918.75 C 1441.71875 915.15625 1480.46875 900.3125 1483.59375 895.3125 C 1484.21875 894.375 1481.09375 888.125 1476.25 880.78125 C 1448.75 839.53125 1428.4375 795 1408.90625 733.125 C 1404.375 718.28125 1400 705.78125 1399.53125 705.3125 C 1399.0625 704.84375 1394.0625 708.125 1388.59375 712.8125 C 1382.96875 717.34375 1376.09375 722.5 1373.28125 724.21875 C 1369.6875 726.40625 1367.65625 728.90625 1367.1875 732.03125 C 1366.40625 736.25 1365.9375 735.46875 1363.4375 726.40625 C 1360.625 715.9375 1360.625 715.9375 1364.21875 709.21875 C 1372.1875 693.59375 1373.59375 678.75 1369.375 656.25 C 1364.84375 631.71875 1362.8125 609.375 1363.59375 594.375 C 1364.0625 586.25 1364.0625 579.6875 1363.59375 579.6875 C 1362.5 579.6875 1348.59375 575.9375 1340.9375 573.59375 C 1336.40625 572.1875 1335.9375 572.34375 1336.5625 574.6875 C 1339.0625 583.90625 1339.375 587.8125 1337.34375 586.5625 C 1335.9375 585.78125 1336.25 586.875 1337.96875 589.6875 C 1341.875 595.46875 1340.15625 596.71875 1335.625 591.25 C 1333.59375 588.90625 1329.84375 584.53125 1327.03125 581.40625 L 1322.03125 575.9375 L 1318.28125 579.375 C 1316.25 581.25 1314.0625 582.8125 1313.28125 582.8125 C 1312.65625 582.8125 1309.0625 585.625 1305.3125 589.0625 C 1301.5625 592.5 1297.8125 595.3125 1296.875 595.3125 C 1296.09375 595.3125 1297.1875 591.25 1299.375 586.25 C 1301.5625 581.40625 1303.75 576.40625 1304.21875 575.3125 C 1304.84375 573.90625 1302.65625 573.4375 1296.5625 573.4375 C 1292.03125 573.4375 1279.84375 572.34375 1269.53125 571.09375 C 1259.21875 569.84375 1237.8125 567.34375 1221.875 565.625 C 1205.9375 563.90625 1190.46875 562.03125 1187.5 561.71875 C 1174.6875 560 1152.65625 557.65625 1136.71875 556.25 C 1127.34375 555.3125 1114.6875 553.90625 1108.59375 553.125 C 1080.78125 549.0625 1049.375 552.1875 1028.59375 561.09375 C 1011.09375 568.59375 988.125 587.96875 979.375 602.34375 L 974.6875 610.15625 L 975.78125 602.65625 C 976.25 598.4375 978.4375 589.375 980.625 582.34375 C 982.65625 575.3125 984.84375 565.9375 985.3125 561.5625 C 986.25 554.0625 986.09375 553.59375 982.65625 552.5 C 976.40625 550.9375 913.125 548.28125 890.625 548.75 C 874.84375 549.0625 869.6875 549.6875 870 551.09375 C 870.46875 554.0625 865.625 553.59375 862.03125 550.3125 C 859.375 547.96875 854.53125 547.65625 809.0625 547.65625 C 760.3125 547.65625 758.90625 547.8125 757.8125 550.78125 C 753.59375 562.5 747.65625 589.375 746.09375 604.6875 C 745.46875 609.375 743.90625 615.9375 742.5 619.375 C 740.46875 624.375 739.84375 624.84375 738.90625 622.5 C 736.71875 617.03125 737.5 608.59375 740.78125 601.5625 C 742.5 597.65625 744.53125 591.40625 745.3125 587.5 C 746.09375 583.59375 748.4375 573.125 750.625 564.375 L 754.375 548.125 L 734.6875 549.21875 C 709.53125 550.46875 647.03125 554.53125 636.71875 555.46875 C 590.9375 559.84375 536.5625 566.40625 532.34375 568.125 C 530.78125 568.59375 529.6875 568.75 529.6875 568.125 C 529.6875 567.65625 533.4375 556.875 538.125 544.21875 C 542.65625 531.5625 547.34375 517.34375 548.4375 512.8125 C 550.3125 505.46875 550.3125 504.375 547.96875 502.03125 C 544.53125 498.4375 518.4375 497.96875 484.375 500.78125 Z M 847.8125 574.53125 C 848.28125 576.875 847.34375 578.28125 845.3125 578.90625 C 843.59375 579.53125 841.25 581.5625 840.15625 583.59375 C 839.21875 585.625 835.46875 590.3125 832.03125 594.0625 C 826.71875 599.6875 815.3125 618.4375 815.625 621.09375 C 815.9375 625.15625 815.3125 626.5625 813.75 625.625 C 812.65625 625 812.5 625.15625 813.125 626.25 C 814.375 628.28125 802.1875 653.28125 799.0625 655.15625 C 797.8125 655.78125 796.875 657.5 796.875 658.59375 C 796.875 659.84375 796.25 660.9375 795.625 660.9375 C 794.84375 660.9375 790.15625 669.53125 785.15625 680 C 780.15625 690.625 770 711.875 762.5 727.34375 C 755.15625 742.8125 748.125 757.65625 747.03125 760.3125 L 745 765.3125 L 726.09375 766.25 C 715.625 766.875 705.3125 767.65625 703.125 768.125 C 699.21875 768.75 699.21875 768.59375 696.40625 752.03125 C 693.75 735.625 681.5625 690.78125 675.15625 673.4375 C 670.46875 660.9375 672.5 671.25 679.84375 696.875 C 683.28125 708.4375 685.9375 719.0625 685.9375 720.3125 C 685.78125 722.8125 685.3125 721.40625 666.40625 660.15625 C 653.59375 618.59375 645.46875 599.0625 637.96875 591.40625 C 633.125 586.40625 630.625 581.71875 632.5 580.625 C 635.78125 578.75 724.6875 573.125 725.78125 574.84375 C 726.09375 575.625 723.4375 578.28125 719.84375 580.9375 C 712.65625 586.09375 712.1875 587.5 712.34375 602.34375 C 712.34375 609.0625 715 620.46875 721.875 642.8125 C 727.03125 660 730.9375 674.21875 730.625 674.53125 C 730.3125 674.84375 727.5 668.28125 724.375 659.84375 C 721.25 651.40625 719.0625 646.71875 719.6875 649.53125 C 720.46875 654.53125 735.625 703.28125 736.5625 704.375 C 736.875 704.53125 742.03125 695.78125 748.125 684.84375 C 762.34375 658.90625 765.9375 651.40625 765.15625 650.46875 C 764.6875 650.15625 763.4375 651.71875 762.1875 654.21875 C 755.3125 667.1875 743.75 686.25 743.75 684.21875 C 743.75 683.75 751.5625 667.8125 760.9375 648.90625 C 782.5 605.625 784.375 597.5 776.25 582.5 C 770.3125 572.03125 770.625 572.03125 809.6875 571.5625 C 828.90625 571.25 845.15625 571.09375 845.9375 571.09375 C 846.71875 571.25 847.65625 572.8125 847.8125 574.53125 Z M 955.625 575.46875 C 956.40625 576.09375 954.6875 578.75 951.875 581.40625 C 945.78125 587.03125 944.6875 591.25 945.78125 602.8125 C 947.1875 616.09375 966.09375 671.5625 981.40625 706.71875 C 984.6875 714.53125 987.1875 721.09375 986.875 721.40625 C 985.78125 722.5 971.71875 689.21875 958.125 653.125 C 956.25 648.4375 954.84375 645.625 954.84375 647.1875 C 954.6875 650 967.03125 684.53125 975.78125 705.625 C 983.125 723.4375 998.59375 751.09375 1008.28125 763.90625 L 1015.78125 773.90625 L 1005.9375 772.96875 C 1000.46875 772.5 981.875 771.09375 964.53125 770.15625 C 937.03125 768.4375 933.28125 767.96875 935.9375 766.09375 C 941.40625 762.1875 942.5 753.4375 939.0625 740.15625 C 937.5 733.59375 935.15625 725.3125 933.90625 721.71875 C 931.25 713.90625 935.46875 714.6875 887.5 714.21875 L 853.90625 713.75 L 848.59375 726.71875 C 841.875 743.4375 840.625 755.625 845.15625 760.78125 C 847.03125 762.8125 848.28125 764.6875 848.125 764.6875 C 847.8125 764.84375 833.4375 764.6875 816.09375 764.375 L 784.53125 763.90625 L 790.3125 757.96875 C 798.4375 749.53125 818.4375 715.46875 835.625 681.40625 C 850.78125 650.9375 854.6875 640.625 843.125 661.40625 C 831.25 682.8125 832.34375 678.125 845.9375 649.21875 C 853.125 633.75 859.84375 618.28125 860.78125 614.84375 C 864.375 601.5625 862.34375 590.46875 854.84375 583.75 C 852.96875 582.03125 851.5625 579.0625 851.5625 576.875 L 851.5625 573.125 L 902.96875 573.59375 C 931.25 573.90625 955 574.84375 955.625 575.46875 Z M 1123.4375 579.375 L 1136.71875 582.34375 L 1137.8125 590.78125 C 1138.4375 595.46875 1140.15625 605.15625 1141.40625 612.5 C 1142.8125 619.84375 1144.375 627.5 1144.6875 629.6875 C 1145.3125 633.125 1145.15625 633.125 1143.125 628.90625 C 1140.15625 622.65625 1140 626.09375 1142.96875 634.53125 C 1146.25 643.59375 1147.03125 650.3125 1144.6875 649.53125 C 1143.75 649.0625 1143.125 648.125 1143.28125 647.34375 C 1143.4375 646.40625 1141.40625 643.75 1138.59375 641.25 L 1133.59375 636.71875 L 1137.5 641.40625 C 1139.6875 643.90625 1137.34375 642.34375 1132.34375 637.96875 C 1114.375 622.34375 1093.75 615.625 1077.03125 620.15625 C 1067.1875 622.8125 1055.625 634.0625 1051.5625 645 C 1048.59375 652.8125 1048.28125 656.09375 1048.90625 671.09375 C 1049.375 682.96875 1050.625 691.25 1052.96875 697.65625 C 1055 703.4375 1055.3125 705.9375 1054.0625 704.21875 C 1051.25 700.625 1046.5625 681.875 1045.3125 668.75 L 1044.21875 658.59375 L 1044.0625 669.53125 C 1043.28125 709.375 1072.1875 746.71875 1111.875 756.875 C 1117.1875 758.28125 1123.75 759.375 1126.5625 759.375 L 1131.5625 759.375 L 1130.625 751.09375 C 1127.03125 720.46875 1124.375 705.3125 1122.34375 703.75 C 1121.09375 702.65625 1115.78125 701.09375 1110.3125 700 C 1099.53125 697.96875 1093.75 699.53125 1088.90625 705.78125 C 1087.1875 708.125 1087.5 707.96875 1090.46875 705.46875 C 1093.28125 703.125 1096.25 702.34375 1103.75 702.34375 C 1119.53125 702.34375 1121.09375 703.28125 1123.28125 713.59375 C 1124.21875 718.4375 1125 724.21875 1124.84375 726.40625 C 1124.6875 730.15625 1123.90625 727.1875 1121.09375 711.40625 C 1120.3125 707.03125 1119.21875 706.09375 1113.59375 704.53125 C 1105.15625 702.34375 1096.5625 703.4375 1091.09375 707.8125 C 1088.28125 710 1086.5625 710.46875 1086.25 709.375 C 1085.78125 707.96875 1085.15625 708.125 1084.21875 709.53125 C 1083.4375 710.9375 1082.96875 708.125 1083.125 702.34375 C 1083.28125 695.3125 1083.4375 694.53125 1083.90625 699.0625 C 1084.375 703.125 1085 704.53125 1085.9375 703.28125 C 1088.28125 699.375 1079.6875 671.25 1077.03125 674.0625 C 1076.5625 674.53125 1075.15625 673.125 1073.90625 670.9375 C 1071.25 665.625 1071.25 663.125 1074.0625 665.46875 C 1076.875 667.8125 1089.0625 671.40625 1102.34375 673.4375 C 1108.4375 674.53125 1124.375 677.34375 1137.96875 679.84375 C 1162.03125 684.21875 1177.5 685.9375 1166.40625 682.8125 C 1163.90625 682.03125 1156.5625 680.625 1150.3125 679.6875 C 1144.0625 678.59375 1139.21875 677.5 1139.53125 677.03125 C 1140.3125 676.25 1173.75 681.25 1175 682.34375 C 1175.3125 682.65625 1174.6875 683.59375 1173.4375 684.53125 C 1171.40625 685.78125 1171.40625 686.09375 1173.4375 687.5 C 1175.46875 688.90625 1174.53125 689.6875 1171.5625 689.21875 C 1170.9375 689.21875 1169.53125 691.875 1168.59375 695.15625 C 1167.1875 700.15625 1167.1875 705 1169.375 719.84375 C 1172.5 742.03125 1182.65625 796.09375 1184.53125 801.25 L 1185.9375 805 L 1176.25 803.90625 C 1159.375 802.03125 1125.46875 797.03125 1112.8125 794.375 C 1062.65625 784.21875 1022.34375 755.9375 1003.75 717.8125 C 995.3125 700.46875 992.03125 685.9375 991.71875 663.28125 L 991.40625 646.09375 L 990 656.25 C 988.125 669.0625 990.625 692.65625 995.15625 705.3125 C 996.875 710.46875 998.125 714.84375 997.8125 715.15625 C 996.71875 716.25 991.09375 699.84375 989.0625 690.15625 C 986.40625 677.1875 986.71875 651.09375 989.84375 639.84375 C 994.0625 624.0625 1000.46875 612.34375 1010 602.8125 C 1023.4375 589.375 1037.96875 581.71875 1060.15625 575.9375 C 1067.1875 574.21875 1110.46875 576.5625 1123.4375 579.375 Z M 628.125 582.1875 C 628.125 582.65625 626.25 586.25 623.90625 590.3125 C 616.71875 602.5 618.4375 617.03125 634.53125 674.6875 C 639.53125 692.34375 637.03125 689.6875 631.09375 671.09375 C 628.28125 661.875 625.625 655.15625 625.3125 655.9375 C 624.6875 657.8125 632.65625 688.28125 640.78125 715.625 C 647.1875 736.875 655 755.78125 660.78125 763.90625 L 663.90625 768.28125 L 647.96875 769.375 C 629.6875 770.625 595.46875 774.53125 589.53125 775.9375 L 585.625 777.03125 L 590 770.3125 C 593.90625 764.53125 594.53125 761.875 594.53125 753.28125 C 594.53125 747.65625 593.59375 738.4375 592.34375 732.96875 L 590.15625 723.125 L 579.0625 724.21875 C 561.71875 725.78125 513.75 734.21875 511.5625 736.09375 C 510.46875 736.875 506.25 744.375 502.1875 752.5 C 495.78125 765.15625 494.6875 768.75 494.53125 776.40625 L 494.53125 785.625 L 480.15625 787.5 C 465.78125 789.21875 448.28125 793.125 434.0625 797.5 L 426.71875 799.84375 L 437.8125 786.25 C 451.71875 769.375 491.875 708.4375 512.96875 672.1875 C 522.5 655.78125 517.96875 661.40625 503.75 683.125 C 496.40625 694.53125 487.65625 707.8125 484.53125 712.5 C 481.25 717.1875 476.40625 725.15625 473.59375 730 C 470.78125 735 467.8125 739.53125 466.71875 740.15625 C 464.84375 741.25 466.40625 738.59375 487.5 704.6875 C 524.21875 645.9375 532.65625 629.53125 532.8125 616.875 C 532.8125 610.9375 531.875 608.4375 528.125 604.21875 C 525.625 601.25 524.0625 598.4375 524.6875 597.8125 C 525.3125 597.1875 524.84375 596.875 523.59375 597.1875 C 522.5 597.34375 521.25 596.875 520.9375 595.9375 C 520.46875 595 525.78125 593.59375 534.6875 592.5 C 542.65625 591.5625 561.25 589.0625 575.78125 586.875 C 611.40625 581.71875 628.125 580.15625 628.125 582.1875 Z M 1190.625 586.71875 C 1204.84375 588.125 1231.875 591.25 1250.78125 593.75 C 1269.6875 596.25 1291.09375 598.59375 1298.4375 599.21875 C 1305.78125 599.84375 1317.34375 601.09375 1324.21875 602.03125 L 1336.71875 603.90625 L 1338.59375 617.1875 C 1343.59375 652.96875 1344.6875 662.5 1343.75 662.5 C 1343.28125 662.5 1341.875 657.03125 1340.78125 650.3125 C 1337.65625 632.03125 1335.78125 625.3125 1336.875 635.9375 C 1337.65625 643.90625 1340.3125 658.28125 1343.125 669.53125 L 1344.21875 674.21875 L 1340.625 671.09375 C 1338.4375 669.21875 1337.5 668.90625 1338.28125 670.3125 C 1339.0625 671.5625 1337.96875 671.25 1335.78125 669.375 C 1325.3125 660.3125 1292.1875 650 1250.9375 642.96875 C 1245.46875 642.03125 1245 642.1875 1245.9375 644.84375 C 1246.5625 646.40625 1248.125 652.1875 1249.375 657.8125 C 1254.21875 679.0625 1254.375 679.375 1259.0625 680.15625 C 1262.1875 680.625 1261.71875 680.78125 1257.1875 681.09375 C 1245.9375 681.40625 1253.28125 683.90625 1280.625 688.90625 C 1317.34375 695.625 1320.46875 695.3125 1324.21875 686.40625 C 1325.9375 682.5 1326.25 682.34375 1327.34375 685 C 1328.125 686.71875 1327.8125 688.28125 1326.5625 689.0625 C 1324.84375 690.15625 1325.15625 694.375 1328.125 712.03125 C 1330 723.90625 1332.34375 734.84375 1333.125 736.40625 C 1335.3125 740.78125 1334.0625 740.9375 1326.25 737.5 C 1312.1875 731.40625 1257.8125 717.5 1257.8125 720.15625 C 1257.8125 720.625 1260.78125 733.90625 1264.375 749.53125 L 1270.9375 777.96875 L 1278.125 779.6875 C 1292.1875 783.28125 1322.03125 789.0625 1331.71875 790 C 1343.4375 791.25 1358.28125 787.8125 1366.71875 782.1875 C 1369.6875 780 1374.53125 775.15625 1377.34375 771.25 L 1382.34375 764.0625 L 1394.53125 792.65625 C 1401.09375 808.28125 1411.71875 831.09375 1418.125 843.28125 C 1424.53125 855.625 1429.6875 865.9375 1429.6875 866.25 C 1429.6875 866.875 1399.6875 860.625 1378.125 855.3125 C 1369.0625 852.96875 1335.78125 843.90625 1303.90625 834.84375 C 1255.625 821.25 1223.28125 812.8125 1203.4375 808.4375 L 1199.84375 807.65625 L 1204.375 801.875 C 1215.625 787.5 1215.3125 777.34375 1201.5625 711.40625 C 1196.09375 685.625 1193.4375 678.125 1196.875 698.4375 C 1199.375 713.59375 1197.96875 713.90625 1194.84375 698.90625 C 1193.4375 692.1875 1189.375 672.96875 1185.9375 656.25 C 1176.25 609.21875 1175.46875 607.34375 1162.1875 592.5 C 1155.78125 585.46875 1155.46875 582.96875 1161.25 583.75 C 1163.28125 584.0625 1176.40625 585.46875 1190.625 586.71875 Z M 895.625 787.34375 C 895.3125 797.34375 895.78125 802.8125 897.5 807.03125 L 900 812.96875 L 886.40625 812.03125 C 878.75 811.40625 870.3125 810.9375 867.5 810.9375 C 861.875 810.9375 861.09375 807.65625 866.40625 806.875 C 868.125 806.5625 869.6875 805.625 870 804.6875 C 870.46875 803.28125 878.28125 798.4375 880.15625 798.4375 C 880.46875 798.4375 880.78125 799.53125 880.78125 800.78125 C 880.78125 802.03125 880 803.125 879.0625 802.96875 C 878.125 802.8125 875.9375 802.8125 874.375 802.96875 C 868.75 803.28125 872.65625 804.53125 882.8125 805.625 C 888.4375 806.25 893.28125 807.1875 893.75 807.96875 C 894.21875 808.59375 894.375 804.21875 894.0625 797.96875 C 893.75 791.71875 892.8125 786.09375 892.1875 785.3125 C 891.40625 784.53125 891.09375 785.3125 891.5625 787.03125 C 892.34375 789.6875 891.71875 790.15625 888.4375 790.15625 C 886.25 790.15625 884.375 789.53125 884.375 788.75 C 884.375 787.96875 885 787.65625 885.78125 788.125 C 886.5625 788.59375 887.5 787.34375 887.8125 785.15625 C 888.28125 782.96875 887.96875 781.25 887.1875 781.25 C 886.40625 781.25 886.09375 780.625 886.5625 779.84375 C 887.03125 779.0625 888.90625 778.75 890.625 779.21875 C 892.34375 779.6875 893.75 779.21875 893.75 778.28125 C 893.75 777.34375 892.03125 776.5625 889.84375 776.5625 C 886.25 776.5625 885.3125 777.8125 885.78125 782.34375 C 885.9375 783.28125 885.3125 784.53125 884.375 785.15625 C 883.59375 785.625 883.125 785.15625 883.59375 784.0625 C 884.0625 782.96875 882.96875 781.09375 881.25 780 C 878.59375 778.4375 878.125 778.4375 878.125 780.78125 C 878.125 783.125 877.8125 782.96875 875.78125 780.3125 C 873.75 777.5 873.59375 777.65625 873.4375 782.8125 C 873.4375 785.9375 874.21875 789.21875 875.15625 790.15625 C 876.40625 791.40625 876.25 792.1875 874.84375 792.96875 C 873.75 793.75 873.28125 793.59375 874.0625 792.5 C 874.53125 791.5625 874.375 790.46875 873.4375 789.84375 C 872.5 789.21875 871.875 790.625 871.875 792.96875 C 871.875 797.03125 867.5 807.03125 866.25 805.78125 C 865.9375 805.46875 866.71875 802.65625 867.96875 799.375 C 869.21875 796.25 870.78125 789.53125 871.40625 784.375 L 872.34375 775.15625 L 884.21875 774.53125 C 890.78125 774.375 896.09375 773.90625 896.09375 773.75 C 896.09375 773.59375 895.9375 779.6875 895.625 787.34375 Z M 550.625 797.1875 C 550 803.59375 550.625 809.53125 552.03125 814.21875 L 554.21875 821.40625 L 522.34375 825.78125 L 526.71875 817.03125 C 529.21875 812.1875 532.1875 804.0625 533.28125 799.0625 C 535.15625 790.78125 535.9375 789.6875 540 788.90625 C 551.40625 786.40625 551.5625 786.40625 550.625 797.1875 Z M 484.21875 823.4375 C 489.6875 824.21875 494.375 825 494.6875 825.46875 C 495 825.78125 494.53125 830.15625 493.59375 835.3125 C 492.65625 840.3125 491.71875 845.78125 491.71875 847.1875 C 491.5625 848.59375 491.09375 849.53125 490.46875 849.0625 C 489.0625 848.28125 488.125 851.25 486.71875 860.9375 C 485 871.5625 483.28125 873.75 481.25 867.8125 C 480.3125 865.15625 477.8125 862.03125 475.78125 860.9375 C 473.75 859.84375 472.34375 858.4375 472.65625 857.65625 C 474.21875 855.15625 461.875 852.8125 451.25 853.4375 C 443.59375 854.0625 437.96875 855.625 430.78125 859.0625 C 420.46875 864.21875 410.3125 872.65625 411.71875 875 C 412.1875 875.78125 411.71875 876.875 410.78125 877.5 C 409.53125 878.125 409.375 877.96875 410 876.875 C 410.625 875.78125 410.46875 875 409.53125 875 C 408.75 875 404.53125 880.15625 400.3125 886.5625 C 383.4375 911.875 380.15625 939.84375 392.5 955.46875 C 397.34375 961.71875 410 967.1875 419.6875 967.1875 C 437.34375 967.1875 452.65625 960.15625 469.21875 944.0625 C 476.25 937.03125 481.25 933.28125 481.25 934.6875 C 481.25 936.09375 480.625 937.5 479.6875 937.8125 C 478.28125 938.28125 473.59375 972.03125 474.0625 980.3125 C 474.21875 983.125 473.28125 985.15625 471.875 985.46875 C 469.84375 986.09375 469.84375 985.9375 471.875 984.53125 C 475.9375 981.5625 470.78125 982.5 455.46875 987.34375 C 423.4375 997.65625 391.875 1001.09375 373.28125 996.09375 C 362.34375 993.28125 354.375 988.90625 345.46875 980.625 C 338.90625 974.53125 338.75 974.53125 342.03125 979.21875 C 343.90625 982.03125 348.59375 986.40625 352.1875 988.90625 C 373.75 1003.75 403.4375 1004.21875 451.40625 990.46875 C 460.3125 987.8125 467.8125 986.09375 468.125 986.40625 C 468.4375 986.71875 462.65625 988.90625 455.15625 991.09375 C 410.3125 1004.6875 380.625 1005.9375 358.59375 995 C 346.5625 989.0625 342.03125 984.6875 335.78125 972.8125 C 331.09375 964.375 330.46875 961.5625 330 948.4375 C 329.21875 929.21875 332.1875 916.09375 341.71875 897.03125 C 356.875 866.875 387.03125 841.71875 421.875 830.46875 C 444.21875 823.125 465.46875 820.625 484.21875 823.4375 Z M 835.78125 836.71875 C 836.25 837.34375 835.15625 838.90625 833.28125 840.3125 C 826.71875 845.3125 826.40625 849.84375 831.25 864.21875 C 835.78125 877.96875 858.125 933.59375 861.875 940.9375 C 863.125 943.28125 866.5625 947.1875 869.53125 949.53125 C 872.5 951.875 875 954.53125 875 955.3125 C 875 955.9375 862.65625 956.40625 847.65625 956.09375 C 832.65625 955.78125 820.3125 955.3125 820.3125 955 C 820.3125 954.6875 821.71875 951.875 823.59375 948.75 L 826.875 942.96875 L 823.4375 933.90625 L 820.15625 925 L 769.0625 925 L 764.6875 932.34375 C 760.78125 939.21875 759.53125 946.40625 761.09375 953.125 C 761.5625 955 758.4375 955.625 742.1875 956.40625 C 697.03125 958.59375 643.90625 963.75 612.5 968.75 C 601.71875 970.46875 590.46875 971.875 587.5 971.875 C 581.5625 971.875 574.21875 968.75 574.21875 966.40625 C 574.21875 964.84375 545.46875 928.125 544.21875 928.125 C 542.65625 928.125 559.21875 949.84375 568.59375 960 C 571.71875 963.28125 573.4375 965.78125 572.5 965.46875 C 568.4375 964.0625 540.625 928.90625 540.625 925.15625 C 540.625 924.21875 540 923.4375 539.21875 923.4375 C 537.34375 923.4375 535.9375 931.09375 534.84375 948.125 C 533.90625 961.5625 534.21875 962.96875 537.5 967.5 C 540 970.78125 540.46875 972.5 539.21875 973.4375 C 537.1875 974.6875 487.1875 982.8125 481.71875 982.8125 C 476.71875 982.8125 477.1875 980.46875 482.96875 976.25 C 490.78125 970.46875 495.3125 961.25 496.875 947.5 C 497.65625 940.625 499.375 925.3125 500.78125 913.28125 C 502.1875 901.25 503.90625 886.875 504.6875 881.25 C 506.875 866.25 506.71875 865.78125 500.625 860 C 493.90625 853.90625 490.9375 855 527.34375 849.6875 C 543.28125 847.5 559.84375 846.09375 572.65625 846.09375 C 590.78125 846.09375 593.75 846.40625 599.53125 849.6875 C 606.875 853.4375 613.125 861.875 614.84375 869.84375 C 616.40625 877.96875 609.21875 892.34375 598.59375 901.71875 C 593.90625 905.9375 589.53125 909.375 588.90625 909.375 C 588.28125 909.375 585.3125 910.46875 582.1875 911.71875 L 576.5625 914.0625 L 592.8125 932.65625 C 615.15625 957.8125 618.90625 960 625 951.5625 C 627.8125 947.65625 628.90625 941.25 632.1875 912.96875 C 634.21875 894.21875 636.09375 873.90625 636.25 867.8125 C 636.71875 857.65625 636.25 856.09375 632.96875 852.5 C 630.9375 850.3125 627.96875 848.125 626.25 847.5 C 620.78125 845.78125 623.4375 844.21875 633.4375 843.125 C 649.21875 841.5625 709.375 837.5 718.4375 837.5 C 726.40625 837.5 726.5625 837.65625 726.5625 842.03125 C 726.5625 844.375 725.9375 848.4375 725.15625 850.9375 C 724.375 853.4375 723.28125 858.75 722.65625 862.8125 C 722.1875 867.03125 721.09375 870.3125 720.3125 870.3125 C 719.53125 870.3125 716.5625 868.125 713.75 865.625 C 709.0625 861.40625 707.8125 860.9375 697.5 860.9375 C 691.40625 860.9375 683.28125 861.40625 679.375 861.875 L 672.34375 862.8125 L 670.9375 875.3125 L 669.375 887.96875 L 687.34375 886.875 C 697.1875 886.25 706.5625 885 708.125 884.21875 C 709.84375 883.28125 711.40625 882.8125 711.71875 883.125 C 712.8125 884.21875 708.90625 912.5 707.65625 912.5 C 707.03125 912.5 705.78125 911.25 704.84375 909.6875 C 703.59375 907.34375 700.9375 907.03125 686.40625 907.1875 L 669.53125 907.1875 L 668.4375 914.21875 C 667.96875 917.96875 667.34375 924.84375 667.34375 929.21875 L 667.1875 937.5 L 678.90625 937.5 C 699.6875 937.5 713.4375 934.6875 721.25 928.75 C 725 925.78125 728.4375 923.4375 728.59375 923.4375 C 728.90625 923.4375 728.28125 928.90625 727.1875 935.46875 C 726.09375 942.1875 725.46875 947.8125 725.78125 948.125 C 726.875 949.375 732.96875 944.84375 736.5625 940.15625 C 742.65625 932.1875 776.5625 858.4375 776.5625 853.125 C 776.5625 848.59375 772.03125 842.1875 768.75 842.1875 C 767.96875 842.1875 767.1875 841.25 767.1875 840 C 767.1875 838.4375 770.15625 837.5 778.59375 836.875 C 784.6875 836.25 792.65625 835.625 796.09375 835.3125 C 804.6875 834.53125 834.53125 835.625 835.78125 836.71875 Z M 962.5 838.125 C 965 838.4375 966.40625 839.53125 966.25 841.09375 C 966.25 842.65625 966.09375 850.9375 965.9375 859.6875 C 965.625 870.78125 965.15625 875 964.0625 873.4375 C 963.28125 872.1875 962.5 871.71875 962.5 872.65625 C 962.5 873.4375 961.25 871.71875 959.6875 868.75 C 956.71875 862.5 951.5625 860.3125 937.03125 858.90625 L 927.96875 857.96875 L 928.90625 865.3125 C 929.375 869.375 930.78125 889.0625 932.03125 908.90625 C 933.28125 928.90625 935 946.5625 935.78125 947.96875 C 936.5625 949.53125 939.53125 952.8125 942.5 955.46875 C 947.1875 959.6875 947.34375 960.15625 944.53125 960.78125 C 939.21875 961.71875 887.5 957.5 886.5625 955.9375 C 885.9375 955.15625 887.8125 952.03125 890.625 949.21875 C 895.625 944.0625 895.78125 943.59375 895.625 930.15625 C 895.625 904.21875 893.4375 857.8125 892.1875 857.03125 C 891.5625 856.71875 885.3125 857.1875 878.28125 858.4375 C 867.5 860.15625 864.6875 861.25 860.46875 865.46875 C 857.5 868.125 855 870 854.53125 869.6875 C 854.21875 869.375 854.0625 861.5625 854.375 852.5 L 854.84375 836.09375 L 906.71875 836.875 C 935.3125 837.34375 960.3125 837.96875 962.5 838.125 Z M 1057.8125 843.75 C 1068.75 847.03125 1083.90625 855.46875 1091.09375 862.1875 C 1093.59375 864.53125 1098.75 871.09375 1102.5 876.875 C 1112.03125 891.09375 1116.40625 908.28125 1115.15625 926.09375 C 1114.0625 942.03125 1110.3125 950.78125 1100.78125 960 C 1090.3125 970.3125 1079.6875 973.90625 1059.375 973.90625 C 1039.84375 974.0625 1027.03125 971.09375 1012.5 963.125 C 984.375 947.65625 971.71875 927.5 971.40625 897.65625 C 971.09375 879.375 974.21875 870 984.375 858.90625 C 1001.09375 840.625 1027.96875 835.15625 1057.8125 843.75 Z M 1175.78125 846.71875 C 1217.5 850.3125 1240.9375 860.625 1250.9375 880 C 1255.15625 888.125 1256.5625 901.25 1253.75 906.875 C 1250.46875 913.125 1242.03125 922.03125 1240.3125 920.9375 C 1239.6875 920.46875 1238.59375 921.25 1238.125 922.5 C 1237.65625 923.75 1233.59375 925.625 1228.59375 926.5625 L 1220 928.4375 L 1229.21875 938.125 C 1234.21875 943.4375 1245.625 955.9375 1254.375 965.9375 C 1271.71875 985.625 1282.8125 995.78125 1297.65625 1005.46875 L 1307.03125 1011.5625 L 1302.34375 1012.65625 C 1286.25 1016.25 1259.0625 1012.03125 1243.59375 1003.59375 C 1233.75 998.28125 1198.90625 961.40625 1180.625 937.03125 C 1178.125 933.75 1175.78125 931.5625 1175.46875 931.875 C 1174.375 932.96875 1179.53125 965.625 1181.5625 970.625 C 1182.34375 972.96875 1186.25 977.5 1190 980.46875 C 1193.75 983.59375 1196.875 986.71875 1196.875 987.34375 C 1196.875 989.375 1175.9375 987.34375 1156.25 983.28125 C 1145.46875 981.09375 1134.84375 978.90625 1132.34375 978.4375 C 1126.25 977.5 1125.625 975.3125 1130.46875 971.5625 C 1136.71875 966.71875 1137.5 962.65625 1135.9375 947.34375 C 1135 939.6875 1133.59375 926.875 1132.65625 918.75 C 1130.9375 902.65625 1124.21875 866.5625 1121.875 860.3125 C 1121.09375 858.28125 1117.34375 854.53125 1113.4375 852.34375 C 1109.375 850 1106.25 847.5 1106.25 846.71875 C 1106.25 844.84375 1153.4375 845 1175.78125 846.71875 Z M 1175.78125 846.71875 "/>
<path style=" stroke:none;fill-rule:nonzero;fill:rgb(0%,0%,0%);fill-opacity:1;" d="M 893.75 633.75 C 893.75 637.03125 881.875 661.5625 873.4375 675.78125 C 870.9375 680 868.90625 684.0625 868.75 684.53125 C 868.75 685.15625 880.3125 685.625 894.53125 685.78125 L 920.3125 686.09375 L 917.03125 677.8125 C 915.15625 673.28125 912.5 665.78125 910.78125 661.40625 C 909.21875 656.875 907.1875 651.875 906.25 650.46875 C 904.21875 647.34375 903.90625 645.9375 910.3125 664.84375 C 912.34375 670.78125 913.90625 676.40625 913.59375 677.34375 C 913.125 678.125 912.1875 676.40625 911.25 673.4375 C 908.4375 663.75 896.5625 633.59375 895.15625 632.03125 C 894.375 631.25 893.75 631.875 893.75 633.75 Z M 893.75 633.75 "/>
<path style=" stroke:none;fill-rule:nonzero;fill:rgb(0%,0%,0%);fill-opacity:1;" d="M 561.40625 655 C 560 657.8125 557.03125 663.59375 554.6875 667.96875 C 545.15625 686.40625 537.5 698.28125 537.5 694.6875 C 537.5 694.375 540 689.6875 543.125 684.375 C 546.25 679.21875 548.59375 674.53125 548.125 674.21875 C 547.8125 673.90625 543.90625 679.6875 539.53125 687.03125 C 535 694.53125 531.5625 700.9375 531.875 701.09375 C 532.34375 701.5625 582.96875 695.15625 583.90625 694.6875 C 584.0625 694.53125 582.65625 689.84375 580.625 684.21875 C 578.59375 678.59375 575.78125 669.21875 574.21875 663.28125 C 572.5 657.34375 571.09375 653.28125 570.78125 654.21875 C 570.46875 655.15625 571.5625 661.40625 573.28125 668.125 C 575 674.84375 576.09375 680.625 575.78125 680.9375 C 575.3125 681.40625 572.5 672.65625 568.4375 657.34375 C 567.5 653.28125 565.9375 650 565.3125 650 C 564.6875 650 562.96875 652.34375 561.40625 655 Z M 561.40625 655 "/>
<path style=" stroke:none;fill-rule:nonzero;fill:rgb(0%,0%,0%);fill-opacity:1;" d="M 547.5 868.28125 C 544.6875 868.75 544.0625 870.78125 542.34375 883.28125 C 541.25 891.25 540 899.84375 539.53125 902.5 L 538.75 907.5 L 548.75 904.84375 C 565 900.46875 573.59375 894.375 576.5625 885 C 578.4375 879.53125 577.34375 872.8125 574.84375 874.21875 C 574.0625 874.6875 573.90625 874.21875 574.375 872.96875 C 575.9375 868.59375 559.84375 865.78125 547.5 868.28125 Z M 547.5 868.28125 "/>
<path style=" stroke:none;fill-rule:nonzero;fill:rgb(0%,0%,0%);fill-opacity:1;" d="M 790.78125 880.625 C 787.8125 887.1875 783.75 895 781.71875 897.96875 C 779.6875 900.78125 778.125 903.4375 778.125 903.59375 C 778.125 903.90625 785.9375 904.21875 795.3125 904.375 L 812.5 904.6875 L 810 898.75 C 808.59375 895.625 806.09375 889.375 804.21875 885.15625 C 802.5 880.78125 800.46875 876.71875 799.6875 875.78125 C 799.0625 875 798.4375 873.125 798.4375 871.5625 C 798.4375 866.09375 796.09375 868.90625 790.78125 880.625 Z M 790.78125 880.625 "/>
<path style=" stroke:none;fill-rule:nonzero;fill:rgb(0%,0%,0%);fill-opacity:1;" d="M 1023.90625 864.375 C 1017.65625 868.125 1011.40625 880.625 1010.15625 892.1875 C 1009.0625 901.71875 1012.34375 920.15625 1016.5625 928.59375 C 1023.28125 941.71875 1036.09375 950.15625 1049.375 950.15625 C 1066.875 950.15625 1075.625 939.21875 1075.15625 917.34375 C 1074.6875 893.75 1067.03125 875 1053.90625 866.09375 C 1047.65625 861.71875 1045.3125 860.9375 1037.65625 861.09375 C 1031.875 861.09375 1027.1875 862.1875 1023.90625 864.375 Z M 1023.90625 864.375 "/>
<path style=" stroke:none;fill-rule:nonzero;fill:rgb(0%,0%,0%);fill-opacity:1;" d="M 1164.6875 870.9375 C 1165.15625 872.8125 1166.5625 881.25 1167.96875 889.84375 C 1171.875 914.84375 1170.3125 912.5 1182.96875 912.5 C 1199.6875 912.5 1207.8125 906.875 1207.8125 895.15625 C 1207.8125 883.90625 1194.84375 872.5 1181.25 871.5625 C 1178.28125 871.40625 1175.15625 870.78125 1174.21875 870.3125 C 1173.4375 869.6875 1170.625 868.75 1168.28125 868.4375 C 1164.375 867.65625 1163.90625 867.96875 1164.6875 870.9375 Z M 1164.6875 870.9375 "/>
<path style=" stroke:none;fill-rule:nonzero;fill:rgb(0%,0%,0%);fill-opacity:1;" d="M 503.28125 1039.375 C 483.59375 1042.03125 479.21875 1043.125 468.125 1048.4375 C 450.46875 1057.03125 425.78125 1062.65625 401.875 1063.59375 C 391.40625 1064.0625 382.34375 1065.15625 381.875 1065.78125 C 381.40625 1066.5625 382.5 1067.1875 384.21875 1067.1875 C 386.71875 1067.1875 387.5 1068.125 387.5 1071.40625 C 387.5 1074.84375 387.1875 1075.3125 385.9375 1073.4375 C 385.15625 1072.1875 384.375 1071.5625 384.375 1072.1875 C 384.375 1072.8125 392.65625 1087.96875 402.8125 1105.78125 C 413.125 1123.59375 423.4375 1142.03125 425.78125 1146.5625 C 428.28125 1151.09375 430.625 1154.0625 431.25 1153.125 C 431.875 1152.1875 434.53125 1155.625 437.34375 1160.78125 C 440.15625 1166.09375 442.8125 1170.15625 443.4375 1169.84375 C 444.0625 1169.6875 446.25 1170.78125 448.4375 1172.34375 C 450.46875 1173.75 451.5625 1175 450.78125 1175 C 447.34375 1175.15625 454.21875 1178.125 457.8125 1178.125 C 462.1875 1178.125 473.59375 1166.40625 482.1875 1153.125 C 484.6875 1149.21875 488.59375 1143.90625 490.9375 1141.40625 C 495.46875 1136.25 498.75 1132.03125 509.21875 1116.875 C 512.96875 1111.40625 522.1875 1098.90625 529.6875 1089.0625 C 537.03125 1079.21875 546.25 1066.5625 550 1060.9375 C 553.75 1055.3125 557.1875 1050.46875 557.8125 1050 C 558.28125 1049.53125 560.46875 1046.71875 562.5 1043.75 C 566.09375 1038.4375 566.09375 1038.28125 562.65625 1041.40625 L 559.21875 1044.375 L 560.78125 1040.15625 C 562.34375 1036.25 562.1875 1036.09375 558.4375 1037.5 C 556.25 1038.4375 554.84375 1038.59375 555.15625 1037.8125 C 556.71875 1035.625 525.3125 1036.5625 503.28125 1039.375 Z M 503.28125 1039.375 "/>
</g>
</svg>
